Bevan.ufo
<glyph name="zero" format="1">
  <advance width="1298"/>
  <unicode hex="0030"/>
  <outline>
    <contour>
      <point x="34" y="695" type="line"/>
      <point x="34" y="551"/>
      <point x="56" y="426"/>
      <point x="100" y="319" type="curve" smooth="yes"/>
      <point x="144" y="212"/>
      <point x="213" y="128"/>
      <point x="307" y="66" type="curve" smooth="yes"/>
      <point x="401" y="4"/>
      <point x="516" y="-27"/>
      <point x="652" y="-26" type="curve"/>
      <point x="787" y="-27"/>
      <point x="901" y="4"/>
      <point x="995" y="66" type="curve" smooth="yes"/>
      <point x="1089" y="128"/>
      <point x="1158" y="212"/>
      <point x="1202" y="319" type="curve" smooth="yes"/>
      <point x="1246" y="426"/>
      <point x="1268" y="551"/>
      <point x="1268" y="695" type="curve" smooth="yes"/>
      <point x="1268" y="790"/>
      <point x="1253" y="878"/>
      <point x="1224" y="960" type="curve" smooth="yes"/>
      <point x="1195" y="1042"/>
      <point x="1154" y="1113"/>
      <point x="1101" y="1173" type="curve" smooth="yes"/>
      <point x="1048" y="1233"/>
      <point x="983" y="1280"/>
      <point x="905" y="1314" type="curve" smooth="yes"/>
      <point x="827" y="1348"/>
      <point x="742" y="1365"/>
      <point x="650" y="1366" type="curve"/>
      <point x="557" y="1365"/>
      <point x="471" y="1347"/>
      <point x="393" y="1313" type="curve" smooth="yes"/>
      <point x="315" y="1279"/>
      <point x="250" y="1232"/>
      <point x="197" y="1172" type="curve" smooth="yes"/>
      <point x="144" y="1112"/>
      <point x="103" y="1041"/>
      <point x="74" y="959" type="curve" smooth="yes"/>
      <point x="45" y="877"/>
      <point x="30" y="789"/>
      <point x="30" y="694" type="curve"/>
    </contour>
    <contour>
      <point x="647" y="348" type="line"/>
      <point x="624" y="348"/>
      <point x="604" y="355"/>
      <point x="587" y="370" type="curve" smooth="yes"/>
      <point x="570" y="385"/>
      <point x="557" y="403"/>
      <point x="548" y="424" type="curve" smooth="yes"/>
      <point x="539" y="445"/>
      <point x="532" y="471"/>
      <point x="527" y="503" type="curve" smooth="yes"/>
      <point x="522" y="535"/>
      <point x="519" y="563"/>
      <point x="518" y="586" type="curve" smooth="yes"/>
      <point x="517" y="609"/>
      <point x="516" y="636"/>
      <point x="516" y="667" type="curve" smooth="yes"/>
      <point x="516" y="695" type="line"/>
      <point x="515" y="716"/>
      <point x="515" y="738"/>
      <point x="516" y="761" type="curve" smooth="yes"/>
      <point x="517" y="784"/>
      <point x="518" y="806"/>
      <point x="519" y="828" type="curve" smooth="yes"/>
      <point x="520" y="850"/>
      <point x="524" y="871"/>
      <point x="530" y="891" type="curve" smooth="yes"/>
      <point x="536" y="911"/>
      <point x="543" y="929"/>
      <point x="552" y="945" type="curve" smooth="yes"/>
      <point x="561" y="961"/>
      <point x="574" y="973"/>
      <point x="590" y="982" type="curve" smooth="yes"/>
      <point x="606" y="991"/>
      <point x="625" y="995"/>
      <point x="646" y="995" type="curve" smooth="yes"/>
      <point x="665" y="995"/>
      <point x="681" y="992"/>
      <point x="695" y="985" type="curve" smooth="yes"/>
      <point x="709" y="978"/>
      <point x="721" y="969"/>
      <point x="730" y="957" type="curve" smooth="yes"/>
      <point x="739" y="945"/>
      <point x="747" y="931"/>
      <point x="754" y="915" type="curve" smooth="yes"/>
      <point x="761" y="899"/>
      <point x="766" y="882"/>
      <point x="769" y="864" type="curve" smooth="yes"/>
      <point x="772" y="846"/>
      <point x="774" y="827"/>
      <point x="776" y="807" type="curve" smooth="yes"/>
      <point x="778" y="787"/>
      <point x="779" y="768"/>
      <point x="779" y="749" type="curve" smooth="yes"/>
      <point x="779" y="730"/>
      <point x="779" y="711"/>
      <point x="779" y="693" type="curve" smooth="yes"/>
      <point x="779" y="665" type="line" smooth="yes"/>
      <point x="779" y="626"/>
      <point x="778" y="591"/>
      <point x="776" y="561" type="curve" smooth="yes"/>
      <point x="774" y="531"/>
      <point x="769" y="498"/>
      <point x="761" y="461" type="curve" smooth="yes"/>
      <point x="753" y="424"/>
      <point x="739" y="395"/>
      <point x="720" y="374" type="curve" smooth="yes"/>
      <point x="701" y="353"/>
      <point x="677" y="343"/>
      <point x="648" y="343" type="curve"/>
    </contour>
  </outline>
</glyph>
<glyph name="one" format="1">
  <advance width="823"/>
  <unicode hex="0031"/>
  <outline>
    <contour>
      <point x="102" y="0" type="line"/>
      <point x="791" y="0" type="line"/>
      <point x="791" y="324" type="line"/>
      <point x="695" y="324" type="line"/>
      <point x="689" y="1375" type="line"/>
      <point x="27" y="1208" type="line"/>
      <point x="27" y="950" type="line"/>
      <point x="191" y="951" type="line"/>
      <point x="191" y="324" type="line"/>
      <point x="101" y="325" type="line"/>
    </contour>
  </outline>
</glyph>
<glyph name="four" format="1">
  <advance width="1268"/>
  <unicode hex="0034"/>
  <outline>
    <contour>
      <point x="1011" y="288" type="line"/>
      <point x="1011" y="420" type="line"/>
      <point x="1239" y="420" type="line"/>
      <point x="1239" y="677" type="line"/>
      <point x="1012" y="675" type="line"/>
      <point x="1012" y="1341" type="line"/>
      <point x="573" y="1342" type="line"/>
      <point x="22" y="688" type="line"/>
      <point x="22" y="419" type="line"/>
      <point x="555" y="420" type="line"/>
      <point x="555" y="288" type="line"/>
      <point x="428" y="288" type="line"/>
      <point x="428" y="0" type="line"/>
      <point x="1133" y="0" type="line"/>
      <point x="1133" y="288" type="line"/>
    </contour>
    <contour>
      <point x="555" y="677" type="line"/>
      <point x="366" y="678" type="line"/>
      <point x="555" y="911" type="line"/>
    </contour>
  </outline>
</glyph>
<glyph name="five" format="1">
  <advance width="1057"/>
  <unicode hex="0035"/>
  <outline>
    <contour>
      <point x="38" y="75" type="line"/>
      <point x="38" y="347" type="line"/>
      <point x="74" y="330" type="line" smooth="yes"/>
      <point x="98" y="319"/>
      <point x="128" y="308"/>
      <point x="163" y="297" type="curve" smooth="yes"/>
      <point x="198" y="286"/>
      <point x="227" y="280"/>
      <point x="250" y="280" type="curve" smooth="yes"/>
      <point x="269" y="280"/>
      <point x="290" y="282"/>
      <point x="313" y="287" type="curve" smooth="yes"/>
      <point x="336" y="292"/>
      <point x="361" y="300"/>
      <point x="387" y="311" type="curve" smooth="yes"/>
      <point x="413" y="322"/>
      <point x="435" y="339"/>
      <point x="452" y="362" type="curve" smooth="yes"/>
      <point x="469" y="385"/>
      <point x="478" y="413"/>
      <point x="478" y="445" type="curve" smooth="yes"/>
      <point x="478" y="484"/>
      <point x="464" y="517"/>
      <point x="436" y="544" type="curve" smooth="yes"/>
      <point x="408" y="571"/>
      <point x="376" y="590"/>
      <point x="339" y="601" type="curve" smooth="yes"/>
      <point x="302" y="612"/>
      <point x="264" y="617"/>
      <point x="225" y="617" type="curve" smooth="yes"/>
      <point x="164" y="617"/>
      <point x="105" y="596"/>
      <point x="48" y="553" type="curve"/>
      <point x="36" y="564" type="line"/>
      <point x="36" y="1358" type="line"/>
      <point x="952" y="1358" type="line"/>
      <point x="952" y="1061" type="line"/>
      <point x="341" y="1061" type="line"/>
      <point x="341" y="922" type="line"/>
      <point x="366" y="926" type="line" smooth="yes"/>
      <point x="383" y="929"/>
      <point x="409" y="932"/>
      <point x="444" y="935" type="curve" smooth="yes"/>
      <point x="479" y="938"/>
      <point x="515" y="939"/>
      <point x="552" y="939" type="curve" smooth="yes"/>
      <point x="685" y="939"/>
      <point x="797" y="898"/>
      <point x="889" y="817" type="curve" smooth="yes"/>
      <point x="981" y="736"/>
      <point x="1027" y="634"/>
      <point x="1027" y="511" type="curve" smooth="yes"/>
      <point x="1027" y="438"/>
      <point x="1016" y="372"/>
      <point x="994" y="313" type="curve" smooth="yes"/>
      <point x="972" y="254"/>
      <point x="942" y="204"/>
      <point x="904" y="163" type="curve" smooth="yes"/>
      <point x="866" y="122"/>
      <point x="820" y="88"/>
      <point x="767" y="60" type="curve" smooth="yes"/>
      <point x="714" y="32"/>
      <point x="657" y="12"/>
      <point x="596" y="-1" type="curve" smooth="yes"/>
      <point x="535" y="-14"/>
      <point x="470" y="-20"/>
      <point x="402" y="-20" type="curve" smooth="yes"/>
      <point x="336" y="-20"/>
      <point x="266" y="-12"/>
      <point x="193" y="4" type="curve" smooth="yes"/>
      <point x="120" y="20"/>
      <point x="68" y="43"/>
      <point x="37" y="73" type="curve"/>
    </contour>
  </outline>
</glyph>
<glyph name="eight" format="1">
  <advance width="1261"/>
  <unicode hex="0038"/>
  <outline>
    <contour>
      <point x="33" y="375" type="line"/>
      <point x="33" y="313"/>
      <point x="46" y="258"/>
      <point x="73" y="210" type="curve" smooth="yes"/>
      <point x="100" y="162"/>
      <point x="133" y="124"/>
      <point x="173" y="96" type="curve" smooth="yes"/>
      <point x="213" y="68"/>
      <point x="261" y="45"/>
      <point x="317" y="27" type="curve" smooth="yes"/>
      <point x="373" y="9"/>
      <point x="426" y="-3"/>
      <point x="476" y="-9" type="curve" smooth="yes"/>
      <point x="526" y="-15"/>
      <point x="578" y="-18"/>
      <point x="632" y="-18" type="curve" smooth="yes"/>
      <point x="686" y="-18"/>
      <point x="738" y="-15"/>
      <point x="788" y="-9" type="curve" smooth="yes"/>
      <point x="838" y="-3"/>
      <point x="891" y="9"/>
      <point x="947" y="27" type="curve" smooth="yes"/>
      <point x="1003" y="45"/>
      <point x="1051" y="68"/>
      <point x="1091" y="96" type="curve" smooth="yes"/>
      <point x="1131" y="124"/>
      <point x="1164" y="162"/>
      <point x="1191" y="210" type="curve" smooth="yes"/>
      <point x="1218" y="258"/>
      <point x="1231" y="313"/>
      <point x="1231" y="375" type="curve" smooth="yes"/>
      <point x="1231" y="545"/>
      <point x="1144" y="663"/>
      <point x="970" y="730" type="curve"/>
      <point x="1028" y="752"/>
      <point x="1073" y="788"/>
      <point x="1105" y="837" type="curve" smooth="yes"/>
      <point x="1137" y="886"/>
      <point x="1153" y="944"/>
      <point x="1153" y="1010" type="curve" smooth="yes"/>
      <point x="1153" y="1067"/>
      <point x="1141" y="1118"/>
      <point x="1117" y="1163" type="curve" smooth="yes"/>
      <point x="1093" y="1208"/>
      <point x="1063" y="1243"/>
      <point x="1027" y="1269" type="curve" smooth="yes"/>
      <point x="991" y="1295"/>
      <point x="948" y="1316"/>
      <point x="899" y="1333" type="curve" smooth="yes"/>
      <point x="850" y="1350"/>
      <point x="804" y="1361"/>
      <point x="761" y="1367" type="curve" smooth="yes"/>
      <point x="718" y="1373"/>
      <point x="675" y="1376"/>
      <point x="632" y="1377" type="curve"/>
      <point x="587" y="1376"/>
      <point x="543" y="1373"/>
      <point x="500" y="1367" type="curve" smooth="yes"/>
      <point x="457" y="1361"/>
      <point x="411" y="1350"/>
      <point x="362" y="1333" type="curve" smooth="yes"/>
      <point x="313" y="1316"/>
      <point x="270" y="1294"/>
      <point x="234" y="1268" type="curve" smooth="yes"/>
      <point x="198" y="1242"/>
      <point x="168" y="1206"/>
      <point x="144" y="1161" type="curve" smooth="yes"/>
      <point x="120" y="1116"/>
      <point x="108" y="1065"/>
      <point x="108" y="1008" type="curve" smooth="yes"/>
      <point x="108" y="942"/>
      <point x="124" y="884"/>
      <point x="156" y="835" type="curve" smooth="yes"/>
      <point x="188" y="786"/>
      <point x="233" y="750"/>
      <point x="291" y="728" type="curve"/>
      <point x="117" y="661"/>
      <point x="30" y="543"/>
      <point x="30" y="373" type="curve"/>
    </contour>
    <contour>
      <point x="550" y="404" type="curve" smooth="yes"/>
      <point x="550" y="519"/>
      <point x="577" y="576"/>
      <point x="632" y="576" type="curve" smooth="yes"/>
      <point x="684" y="576"/>
      <point x="710" y="519"/>
      <point x="710" y="404" type="curve" smooth="yes"/>
      <point x="710" y="293"/>
      <point x="683" y="238"/>
      <point x="630" y="238" type="curve" smooth="yes"/>
      <point x="577" y="238"/>
      <point x="550" y="293"/>
    </contour>
    <contour>
      <point x="550" y="984" type="line"/>
      <point x="550" y="1003"/>
      <point x="551" y="1019"/>
      <point x="553" y="1032" type="curve" smooth="yes"/>
      <point x="555" y="1045"/>
      <point x="558" y="1059"/>
      <point x="563" y="1074" type="curve" smooth="yes"/>
      <point x="568" y="1089"/>
      <point x="576" y="1100"/>
      <point x="588" y="1108" type="curve" smooth="yes"/>
      <point x="600" y="1116"/>
      <point x="615" y="1120"/>
      <point x="634" y="1121" type="curve"/>
      <point x="650" y="1120"/>
      <point x="664" y="1116"/>
      <point x="676" y="1108" type="curve" smooth="yes"/>
      <point x="688" y="1100"/>
      <point x="696" y="1089"/>
      <point x="701" y="1074" type="curve" smooth="yes"/>
      <point x="706" y="1059"/>
      <point x="709" y="1045"/>
      <point x="711" y="1032" type="curve" smooth="yes"/>
      <point x="713" y="1019"/>
      <point x="714" y="1003"/>
      <point x="714" y="984" type="curve" smooth="yes"/>
      <point x="714" y="876"/>
      <point x="688" y="823"/>
      <point x="636" y="824" type="curve"/>
      <point x="581" y="823"/>
      <point x="554" y="876"/>
      <point x="554" y="984" type="curve"/>
    </contour>
  </outline>
</glyph>
<glyph name="F" format="1">
  <advance width="1356"/>
  <unicode hex="0046"/>
  <outline>
    <contour>
      <point x="691" y="1593" type="move" name="top"/>
    </contour>
    <contour>
      <point x="691" y="0" type="move" name="bot"/>
    </contour>
    <contour>
      <point x="979" y="683" type="line"/>
      <point x="979" y="939" type="line"/>
      <point x="777" y="939" type="line"/>
      <point x="777" y="1240" type="line"/>
      <point x="981" y="1240" type="line"/>
      <point x="1045" y="949" type="line"/>
      <point x="1329" y="949" type="line"/>
      <point x="1329" y="1593" type="line"/>
      <point x="54" y="1593" type="line"/>
      <point x="54" y="1240" type="line"/>
      <point x="212" y="1240" type="line"/>
      <point x="212" y="359" type="line"/>
      <point x="54" y="359" type="line"/>
      <point x="54" y="0" type="line"/>
      <point x="931" y="0" type="line"/>
      <point x="931" y="359" type="line"/>
      <point x="777" y="359" type="line"/>
      <point x="777" y="683" type="line"/>
    </contour>
  </outline>
</glyph>
<glyph name="I" format="1">
  <advance width="940"/>
  <unicode hex="0049"/>
  <outline>
    <contour>
      <point x="470" y="1593" type="move" name="top"/>
    </contour>
    <contour>
      <point x="470" y="0" type="move" name="bot"/>
    </contour>
    <contour>
      <point x="904" y="1240" type="line"/>
      <point x="904" y="1593" type="line"/>
      <point x="40" y="1593" type="line"/>
      <point x="40" y="1240" type="line"/>
      <point x="183" y="1240" type="line"/>
      <point x="183" y="359" type="line"/>
      <point x="36" y="359" type="line"/>
      <point x="36" y="0" type="line"/>
      <point x="898" y="0" type="line"/>
      <point x="898" y="359" type="line"/>
      <point x="757" y="359" type="line"/>
      <point x="757" y="1240" type="line"/>
    </contour>
  </outline>
</glyph>
<glyph name="J" format="1">
  <advance width="1319"/>
  <unicode hex="004A"/>
  <outline>
    <contour>
      <point x="646" y="1593" type="move" name="top"/>
    </contour>
    <contour>
      <point x="646" y="0" type="move" name="bot"/>
    </contour>
    <contour>
      <point x="454" y="365" type="curve" smooth="yes"/>
      <point x="549" y="365"/>
      <point x="565" y="458"/>
      <point x="565" y="572" type="curve" smooth="yes"/>
      <point x="565" y="1240" type="line"/>
      <point x="411" y="1240" type="line"/>
      <point x="411" y="1593" type="line"/>
      <point x="1265" y="1593" type="line"/>
      <point x="1265" y="1240" type="line"/>
      <point x="1118" y="1240" type="line"/>
      <point x="1118" y="475" type="line" smooth="yes"/>
      <point x="1118" y="167"/>
      <point x="931" y="-30"/>
      <point x="622" y="-30" type="curve" smooth="yes"/>
      <point x="489" y="-30"/>
      <point x="393" y="6"/>
      <point x="334" y="79" type="curve"/>
      <point x="297" y="-13" type="line"/>
      <point x="27" y="-13" type="line"/>
      <point x="27" y="633" type="line"/>
      <point x="331" y="633" type="line"/>
      <point x="331" y="514"/>
      <point x="336" y="365"/>
    </contour>
  </outline>
</glyph>
<glyph name="P" format="1">
  <advance width="1606"/>
  <unicode hex="0050"/>
  <outline>
    <contour>
      <point x="817" y="1593" type="move" name="top"/>
    </contour>
    <contour>
      <point x="817" y="0" type="move" name="bot"/>
    </contour>
    <contour>
      <point x="919" y="559" type="curve" smooth="yes"/>
      <point x="872" y="559"/>
      <point x="822" y="562"/>
      <point x="769" y="569" type="curve"/>
      <point x="769" y="359" type="line"/>
      <point x="915" y="359" type="line"/>
      <point x="915" y="0" type="line"/>
      <point x="54" y="0" type="line"/>
      <point x="54" y="359" type="line"/>
      <point x="210" y="359" type="line"/>
      <point x="210" y="1240" type="line"/>
      <point x="59" y="1240" type="line"/>
      <point x="59" y="1593" type="line"/>
      <point x="910" y="1593" type="line" smooth="yes"/>
      <point x="1232" y="1593"/>
      <point x="1581" y="1519"/>
      <point x="1581" y="1133" type="curve" smooth="yes"/>
      <point x="1581" y="714"/>
      <point x="1344" y="559"/>
    </contour>
    <contour>
      <point x="854" y="1240" type="curve"/>
      <point x="770" y="1240" type="line"/>
      <point x="770" y="885" type="line"/>
      <point x="811" y="885" type="line" smooth="yes"/>
      <point x="962" y="885"/>
      <point x="1038" y="952"/>
      <point x="1038" y="1086" type="curve" smooth="yes"/>
      <point x="1038" y="1186"/>
      <point x="964" y="1240"/>
    </contour>
  </outline>
</glyph>
<glyph name="U" format="1">
  <advance width="1655"/>
  <unicode hex="0055"/>
  <outline>
    <contour>
      <point x="827" y="1593" type="move" name="top"/>
    </contour>
    <contour>
      <point x="827" y="0" type="move" name="bot"/>
    </contour>
    <contour>
      <point x="190" y="704" type="curve"/>
      <point x="190" y="1240" type="line"/>
      <point x="29" y="1240" type="line"/>
      <point x="29" y="1592" type="line"/>
      <point x="898" y="1592" type="line"/>
      <point x="898" y="1240" type="line"/>
      <point x="750" y="1240" type="line"/>
      <point x="750" y="600" type="line" smooth="yes"/>
      <point x="750" y="462"/>
      <point x="800" y="346"/>
      <point x="939" y="346" type="curve" smooth="yes"/>
      <point x="1059" y="346"/>
      <point x="1135" y="417"/>
      <point x="1135" y="536" type="curve" smooth="yes"/>
      <point x="1135" y="1240" type="line"/>
      <point x="971" y="1240" type="line"/>
      <point x="971" y="1592" type="line"/>
      <point x="1625" y="1592" type="line"/>
      <point x="1625" y="1240" type="line"/>
      <point x="1471" y="1240" type="line"/>
      <point x="1471" y="520" type="line" smooth="yes"/>
      <point x="1471" y="181"/>
      <point x="1163" y="-29"/>
      <point x="820" y="-29" type="curve" smooth="yes"/>
      <point x="359" y="-29"/>
      <point x="190" y="245"/>
    </contour>
  </outline>
</glyph>
<glyph name="V" format="1">
  <advance width="1743"/>
  <unicode hex="0056"/>
  <outline>
    <contour>
      <point x="872" y="1593" type="move" name="top"/>
    </contour>
    <contour>
      <point x="872" y="0" type="move" name="bot"/>
    </contour>
    <contour>
      <point x="776" y="1240" type="line"/>
      <point x="978" y="517" type="line"/>
      <point x="1153" y="1239" type="line"/>
      <point x="1023" y="1239" type="line"/>
      <point x="1023" y="1592" type="line"/>
      <point x="1717" y="1592" type="line"/>
      <point x="1717" y="1240" type="line"/>
      <point x="1615" y="1240"/>
      <point x="1537" y="1240"/>
      <point x="1537" y="1240" type="curve"/>
      <point x="1138" y="0" type="line"/>
      <point x="554" y="0" type="line"/>
      <point x="193" y="1240" type="line"/>
      <point x="27" y="1240" type="line"/>
      <point x="27" y="1592" type="line"/>
      <point x="892" y="1592" type="line"/>
      <point x="892" y="1240" type="line"/>
    </contour>
  </outline>
</glyph>
<glyph name="W" format="1">
  <advance width="2557"/>
  <unicode hex="0057"/>
  <outline>
    <contour>
      <point x="1278" y="1593" type="move" name="top"/>
    </contour>
    <contour>
      <point x="1278" y="0" type="move" name="bot"/>
    </contour>
    <contour>
      <point x="30" y="1593" type="line"/>
      <point x="921" y="1593" type="line"/>
      <point x="921" y="1240" type="line"/>
      <point x="770" y="1240" type="line"/>
      <point x="929" y="672" type="line"/>
      <point x="1189" y="1593" type="line"/>
      <point x="1598" y="1593" type="line"/>
      <point x="1851" y="703" type="line"/>
      <point x="2006" y="1240" type="line"/>
      <point x="1866" y="1240" type="line"/>
      <point x="1866" y="1593" type="line"/>
      <point x="2527" y="1593" type="line"/>
      <point x="2527" y="1240" type="line"/>
      <point x="2358" y="1240" type="line"/>
      <point x="2017" y="0" type="line"/>
      <point x="1474" y="0" type="line"/>
      <point x="1281" y="706" type="line"/>
      <point x="1079" y="0" type="line"/>
      <point x="542" y="0" type="line"/>
      <point x="193" y="1240" type="line"/>
      <point x="30" y="1240" type="line"/>
    </contour>
  </outline>
</glyph>
<glyph name="X" format="1">
  <advance width="1921"/>
  <unicode hex="0058"/>
  <outline>
    <contour>
      <point x="960" y="1593" type="move" name="top"/>
    </contour>
    <contour>
      <point x="960" y="0" type="move" name="bot"/>
    </contour>
    <contour>
      <point x="857" y="359" type="curve" smooth="yes"/>
      <point x="857" y="0" type="line"/>
      <point x="35" y="0" type="line"/>
      <point x="35" y="358" type="line"/>
      <point x="194" y="358" type="line"/>
      <point x="628" y="842" type="line"/>
      <point x="257" y="1240" type="line"/>
      <point x="86" y="1240" type="line"/>
      <point x="86" y="1593" type="line"/>
      <point x="1004" y="1593" type="line"/>
      <point x="1004" y="1240" type="line"/>
      <point x="922" y="1240" type="line"/>
      <point x="1084" y="1044" type="line"/>
      <point x="1232" y="1240" type="line"/>
      <point x="1088" y="1240" type="line"/>
      <point x="1088" y="1593" type="line"/>
      <point x="1835" y="1593" type="line"/>
      <point x="1835" y="1240" type="line"/>
      <point x="1638" y="1240" type="line"/>
      <point x="1305" y="809" type="line"/>
      <point x="1734" y="359" type="line"/>
      <point x="1886" y="359" type="line"/>
      <point x="1886" y="0" type="line"/>
      <point x="957" y="0" type="line"/>
      <point x="957" y="359" type="line"/>
      <point x="1083" y="359" type="line"/>
      <point x="840" y="614" type="line"/>
      <point x="634" y="358" type="line"/>
      <point x="652" y="359"/>
      <point x="674" y="359"/>
    </contour>
  </outline>
</glyph>
<glyph name="backslash" format="1">
  <advance width="947"/>
  <unicode hex="005C"/>
  <outline>
    <contour>
      <point x="358" y="0" type="line"/>
      <point x="931" y="0" type="line"/>
      <point x="590" y="1623" type="line"/>
      <point x="16" y="1623" type="line"/>
    </contour>
  </outline>
</glyph>
<glyph name="bracketright" format="1">
  <advance width="786"/>
  <unicode hex="005D"/>
  <outline>
    <contour>
      <point x="41" y="0" type="line"/>
      <point x="750" y="0" type="line"/>
      <point x="750" y="1623" type="line"/>
      <point x="36" y="1623" type="line"/>
      <point x="36" y="1322" type="line"/>
      <point x="233" y="1322" type="line"/>
      <point x="233" y="311" type="line"/>
      <point x="40" y="311" type="line"/>
    </contour>
  </outline>
</glyph>
<glyph name="grave" format="1">
  <advance width="756"/>
  <unicode hex="0060"/>
  <outline>
    <contour>
      <point x="420" y="1072" type="move" name="_top"/>
    </contour>
    <contour>
      <point x="232" y="1788" type="line"/>
      <point x="48" y="1523" type="line"/>
      <point x="602" y="1210" type="line"/>
      <point x="706" y="1351" type="line"/>
    </contour>
  </outline>
</glyph>
<glyph name="a" format="1">
  <advance width="1345"/>
  <unicode hex="0061"/>
  <outline>
    <contour>
      <point x="689" y="1008" type="move" name="top"/>
    </contour>
    <contour>
      <point x="1061" y="0" type="move" name="bot"/>
    </contour>
    <contour>
      <point x="478" y="630" type="curve" smooth="yes"/>
      <point x="579" y="630"/>
      <point x="660" y="617"/>
      <point x="736" y="592" type="curve"/>
      <point x="736" y="637" type="line" smooth="yes"/>
      <point x="736" y="748"/>
      <point x="670" y="803"/>
      <point x="522" y="803" type="curve" smooth="yes"/>
      <point x="427" y="803"/>
      <point x="355" y="771"/>
      <point x="307" y="708" type="curve"/>
      <point x="132" y="708" type="line"/>
      <point x="132" y="1022" type="line"/>
      <point x="293" y="1064"/>
      <point x="491" y="1091"/>
      <point x="615" y="1091" type="curve" smooth="yes"/>
      <point x="912" y="1091"/>
      <point x="1223" y="1032"/>
      <point x="1223" y="750" type="curve" smooth="yes"/>
      <point x="1223" y="301" type="line"/>
      <point x="1319" y="301" type="line"/>
      <point x="1319" y="0" type="line"/>
      <point x="787" y="0" type="line"/>
      <point x="736" y="119" type="line"/>
      <point x="679" y="44"/>
      <point x="556" y="-18"/>
      <point x="432" y="-18" type="curve" smooth="yes"/>
      <point x="235" y="-18"/>
      <point x="59" y="104"/>
      <point x="59" y="308" type="curve" smooth="yes"/>
      <point x="59" y="529"/>
      <point x="266" y="630"/>
    </contour>
    <contour>
      <point x="629" y="224" type="curve" smooth="yes"/>
      <point x="673" y="224"/>
      <point x="719" y="243"/>
      <point x="736" y="260" type="curve"/>
      <point x="736" y="427" type="line"/>
      <point x="711" y="432"/>
      <point x="674" y="438"/>
      <point x="638" y="438" type="curve" smooth="yes"/>
      <point x="565" y="438"/>
      <point x="529" y="382"/>
      <point x="529" y="327" type="curve" smooth="yes"/>
      <point x="529" y="275"/>
      <point x="562" y="224"/>
    </contour>
  </outline>
</glyph>
<glyph name="b" format="1">
  <advance width="1432"/>
  <unicode hex="0062"/>
  <outline>
    <contour>
      <point x="690" y="1008" type="move" name="top"/>
    </contour>
    <contour>
      <point x="690" y="0" type="move" name="bot"/>
    </contour>
    <contour>
      <point x="624" y="1560" type="line"/>
      <point x="624" y="965" type="line"/>
      <point x="729" y="1050"/>
      <point x="831" y="1092"/>
      <point x="930" y="1092" type="curve" smooth="yes"/>
      <point x="1228" y="1092"/>
      <point x="1382" y="837"/>
      <point x="1382" y="538" type="curve" smooth="yes"/>
      <point x="1382" y="228"/>
      <point x="1222" y="-18"/>
      <point x="909" y="-18" type="curve" smooth="yes"/>
      <point x="776" y="-18"/>
      <point x="689" y="38"/>
      <point x="633" y="102" type="curve"/>
      <point x="593" y="0" type="line"/>
      <point x="142" y="0" type="line"/>
      <point x="142" y="1222" type="line"/>
      <point x="-1" y="1222" type="line"/>
      <point x="-1" y="1495" type="line"/>
    </contour>
    <contour>
      <point x="910" y="509" type="curve" smooth="yes"/>
      <point x="910" y="646"/>
      <point x="886" y="779"/>
      <point x="764" y="779" type="curve" smooth="yes"/>
      <point x="696" y="779"/>
      <point x="651" y="743"/>
      <point x="629" y="713" type="curve"/>
      <point x="629" y="344" type="line"/>
      <point x="656" y="321"/>
      <point x="704" y="294"/>
      <point x="764" y="294" type="curve" smooth="yes"/>
      <point x="864" y="294"/>
      <point x="910" y="389"/>
    </contour>
  </outline>
</glyph>
<glyph name="c" format="1">
  <advance width="1166"/>
  <unicode hex="0063"/>
  <outline>
    <contour>
      <point x="530" y="1008" type="move" name="top"/>
    </contour>
    <contour>
      <point x="530" y="0" type="move" name="bot"/>
    </contour>
    <contour>
      <point x="640" y="779" type="curve" smooth="yes"/>
      <point x="541" y="779"/>
      <point x="505" y="649"/>
      <point x="505" y="513" type="curve" smooth="yes"/>
      <point x="505" y="399"/>
      <point x="546" y="294"/>
      <point x="660" y="294" type="curve" smooth="yes"/>
      <point x="730" y="294"/>
      <point x="756" y="358"/>
      <point x="767" y="425" type="curve"/>
      <point x="1067" y="425" type="line"/>
      <point x="1067" y="124" type="line"/>
      <point x="1067" y="124"/>
      <point x="906" y="-18"/>
      <point x="624" y="-18" type="curve" smooth="yes"/>
      <point x="258" y="-18"/>
      <point x="34" y="200"/>
      <point x="34" y="546" type="curve" smooth="yes"/>
      <point x="34" y="860"/>
      <point x="235" y="1091"/>
      <point x="551" y="1091" type="curve" smooth="yes"/>
      <point x="642" y="1091"/>
      <point x="768" y="1061"/>
      <point x="809" y="965" type="curve"/>
      <point x="850" y="1072" type="line"/>
      <point x="1065" y="1072" type="line"/>
      <point x="1065" y="628" type="line"/>
      <point x="763" y="628" type="line"/>
      <point x="763" y="707"/>
      <point x="715" y="779"/>
    </contour>
  </outline>
</glyph>
<glyph name="e" format="1">
  <advance width="1220"/>
  <unicode hex="0065"/>
  <outline>
    <contour>
      <point x="591" y="1008" type="move" name="top"/>
    </contour>
    <contour>
      <point x="591" y="0" type="move" name="bot"/>
    </contour>
    <contour>
      <point x="608" y="1091" type="curve" smooth="yes"/>
      <point x="934" y="1091"/>
      <point x="1149" y="891"/>
      <point x="1149" y="576" type="curve" smooth="yes"/>
      <point x="1149" y="531"/>
      <point x="1133" y="473"/>
      <point x="1133" y="473" type="curve"/>
      <point x="505" y="473" type="line"/>
      <point x="505" y="342"/>
      <point x="564" y="223"/>
      <point x="682" y="223" type="curve" smooth="yes"/>
      <point x="773" y="223"/>
      <point x="820" y="276"/>
      <point x="823" y="375" type="curve"/>
      <point x="1130" y="375" type="line"/>
      <point x="1130" y="128" type="line"/>
      <point x="974" y="31"/>
      <point x="835" y="-18"/>
      <point x="602" y="-18" type="curve" smooth="yes"/>
      <point x="271" y="-18"/>
      <point x="34" y="201"/>
      <point x="34" y="542" type="curve" smooth="yes"/>
      <point x="34" y="881"/>
      <point x="258" y="1091"/>
    </contour>
    <contour>
      <point x="507" y="678" type="curve"/>
      <point x="507" y="649" type="line"/>
      <point x="722" y="649" type="line"/>
      <point x="722" y="670" type="line"/>
      <point x="722" y="758"/>
      <point x="704" y="836"/>
      <point x="615" y="836" type="curve" smooth="yes"/>
      <point x="540" y="836"/>
      <point x="507" y="754"/>
    </contour>
  </outline>
</glyph>
<glyph name="k" format="1">
  <advance width="1433"/>
  <unicode hex="006B"/>
  <outline>
    <contour>
      <point x="718" y="1008" type="move" name="top"/>
    </contour>
    <contour>
      <point x="718" y="0" type="move" name="bot"/>
    </contour>
    <contour>
      <point x="635" y="438" type="line"/>
      <point x="920" y="0" type="line"/>
      <point x="1393" y="0" type="line"/>
      <point x="1393" y="301" type="line"/>
      <point x="1238" y="301" type="line"/>
      <point x="1031" y="618" type="line"/>
      <point x="1032" y="618"/>
      <point x="1204" y="762"/>
      <point x="1204" y="761" type="curve"/>
      <point x="1375" y="761" type="line"/>
      <point x="1375" y="1072" type="line"/>
      <point x="741" y="1072" type="line"/>
      <point x="741" y="761" type="line"/>
      <point x="836" y="761" type="line"/>
      <point x="635" y="587" type="line"/>
      <point x="635" y="1560" type="line"/>
      <point x="44" y="1495" type="line"/>
      <point x="44" y="1222" type="line"/>
      <point x="148" y="1222" type="line"/>
      <point x="148" y="301" type="line"/>
      <point x="45" y="301" type="line"/>
      <point x="45" y="0" type="line"/>
      <point x="635" y="0" type="line"/>
    </contour>
  </outline>
</glyph>
<glyph name="o" format="1">
  <advance width="1270"/>
  <unicode hex="006F"/>
  <outline>
    <contour>
      <point x="635" y="1008" type="move" name="top"/>
    </contour>
    <contour>
      <point x="635" y="0" type="move" name="bot"/>
    </contour>
    <contour>
      <point x="635" y="1091" type="curve" smooth="yes"/>
      <point x="275" y="1091"/>
      <point x="34" y="902"/>
      <point x="34" y="547" type="curve" smooth="yes"/>
      <point x="34" y="187"/>
      <point x="274" y="-18"/>
      <point x="635" y="-18" type="curve" smooth="yes"/>
      <point x="996" y="-18"/>
      <point x="1236" y="187"/>
      <point x="1236" y="547" type="curve" smooth="yes"/>
      <point x="1236" y="902"/>
      <point x="995" y="1091"/>
    </contour>
    <contour>
      <point x="635" y="294" type="curve" smooth="yes"/>
      <point x="550" y="294"/>
      <point x="505" y="422"/>
      <point x="505" y="546" type="curve" smooth="yes"/>
      <point x="505" y="664"/>
      <point x="546" y="779"/>
      <point x="635" y="779" type="curve" smooth="yes"/>
      <point x="724" y="779"/>
      <point x="765" y="664"/>
      <point x="765" y="546" type="curve" smooth="yes"/>
      <point x="765" y="422"/>
      <point x="719" y="294"/>
    </contour>
  </outline>
</glyph>
<glyph name="t" format="1">
  <advance width="895"/>
  <unicode hex="0074"/>
  <outline>
    <contour>
      <point x="433" y="1008" type="move" name="top"/>
    </contour>
    <contour>
      <point x="433" y="0" type="move" name="bot"/>
    </contour>
    <contour>
      <point x="733" y="334" type="curve" smooth="yes"/>
      <point x="763" y="334"/>
      <point x="799" y="339"/>
      <point x="841" y="348" type="curve"/>
      <point x="841" y="49" type="line"/>
      <point x="747" y="6"/>
      <point x="624" y="-18"/>
      <point x="534" y="-18" type="curve" smooth="yes"/>
      <point x="273" y="-18"/>
      <point x="148" y="115"/>
      <point x="148" y="382" type="curve" smooth="yes"/>
      <point x="148" y="779" type="line"/>
      <point x="26" y="779" type="line"/>
      <point x="26" y="1072" type="line"/>
      <point x="148" y="1072" type="line"/>
      <point x="148" y="1301" type="line"/>
      <point x="635" y="1406" type="line"/>
      <point x="635" y="1072" type="line"/>
      <point x="808" y="1072" type="line"/>
      <point x="808" y="779" type="line"/>
      <point x="635" y="779" type="line"/>
      <point x="635" y="438" type="line" smooth="yes"/>
      <point x="635" y="377"/>
      <point x="666" y="334"/>
    </contour>
  </outline>
</glyph>
<glyph name="yen" format="1">
  <advance width="1662"/>
  <unicode hex="00A5"/>
  <outline>
    <contour>
      <point x="151" y="936" type="line"/>
      <point x="388" y="936" type="line"/>
      <point x="152" y="1274" type="line"/>
      <point x="40" y="1274" type="line"/>
      <point x="40" y="1622" type="line"/>
      <point x="892" y="1622" type="line"/>
      <point x="892" y="1274" type="line"/>
      <point x="801" y="1274" type="line"/>
      <point x="816" y="1254"/>
      <point x="847" y="1207"/>
      <point x="894" y="1134" type="curve" smooth="yes"/>
      <point x="941" y="1061"/>
      <point x="971" y="1014"/>
      <point x="985" y="993" type="curve"/>
      <point x="1061" y="1108"/>
      <point x="1099" y="1184"/>
      <point x="1099" y="1221" type="curve" smooth="yes"/>
      <point x="1099" y="1245"/>
      <point x="1090" y="1260"/>
      <point x="1072" y="1266" type="curve" smooth="yes"/>
      <point x="1062" y="1270"/>
      <point x="1032" y="1272"/>
      <point x="982" y="1272" type="curve"/>
      <point x="982" y="1622" type="line"/>
      <point x="1619" y="1622" type="line"/>
      <point x="1619" y="1272" type="line"/>
      <point x="1545" y="1272" type="line" smooth="yes"/>
      <point x="1522" y="1272"/>
      <point x="1501" y="1269"/>
      <point x="1483" y="1263" type="curve" smooth="yes"/>
      <point x="1465" y="1257"/>
      <point x="1450" y="1251"/>
      <point x="1438" y="1244" type="curve" smooth="yes"/>
      <point x="1426" y="1237"/>
      <point x="1413" y="1224"/>
      <point x="1399" y="1206" type="curve" smooth="yes"/>
      <point x="1385" y="1188"/>
      <point x="1374" y="1172"/>
      <point x="1367" y="1159" type="curve" smooth="yes"/>
      <point x="1360" y="1146"/>
      <point x="1348" y="1124"/>
      <point x="1331" y="1093" type="curve"/>
      <point x="1230" y="934" type="line"/>
      <point x="1541" y="934" type="line"/>
      <point x="1541" y="760" type="line"/>
      <point x="1127" y="760" type="line"/>
      <point x="1127" y="628" type="line"/>
      <point x="1541" y="628" type="line"/>
      <point x="1541" y="454" type="line"/>
      <point x="1127" y="454" type="line"/>
      <point x="1127" y="369" type="line"/>
      <point x="1284" y="369" type="line"/>
      <point x="1284" y="-2" type="line"/>
      <point x="415" y="-2" type="line"/>
      <point x="415" y="369" type="line"/>
      <point x="570" y="369" type="line"/>
      <point x="570" y="454" type="line"/>
      <point x="148" y="454" type="line"/>
      <point x="148" y="628" type="line"/>
      <point x="570" y="628" type="line"/>
      <point x="570" y="670" type="line"/>
      <point x="507" y="760" type="line"/>
      <point x="148" y="760" type="line"/>
    </contour>
  </outline>
</glyph>
<glyph name="ordfeminine" format="1">
  <advance width="991"/>
  <unicode hex="00AA"/>
  <outline>
    <contour>
      <point x="39" y="1046" type="line"/>
      <point x="39" y="973"/>
      <point x="67" y="915"/>
      <point x="123" y="872" type="curve" smooth="yes"/>
      <point x="179" y="829"/>
      <point x="247" y="807"/>
      <point x="326" y="807" type="curve" smooth="yes"/>
      <point x="367" y="807"/>
      <point x="409" y="816"/>
      <point x="452" y="834" type="curve" smooth="yes"/>
      <point x="495" y="852"/>
      <point x="529" y="877"/>
      <point x="554" y="909" type="curve"/>
      <point x="591" y="821" type="line"/>
      <point x="939" y="821" type="line"/>
      <point x="939" y="1046" type="line"/>
      <point x="883" y="1046" type="line"/>
      <point x="883" y="1374" type="line" smooth="yes"/>
      <point x="883" y="1408"/>
      <point x="877" y="1439"/>
      <point x="864" y="1466" type="curve" smooth="yes"/>
      <point x="851" y="1493"/>
      <point x="835" y="1515"/>
      <point x="817" y="1532" type="curve" smooth="yes"/>
      <point x="799" y="1549"/>
      <point x="776" y="1564"/>
      <point x="748" y="1576" type="curve" smooth="yes"/>
      <point x="720" y="1588"/>
      <point x="694" y="1597"/>
      <point x="670" y="1603" type="curve" smooth="yes"/>
      <point x="646" y="1609"/>
      <point x="619" y="1614"/>
      <point x="588" y="1617" type="curve" smooth="yes"/>
      <point x="557" y="1620"/>
      <point x="533" y="1622"/>
      <point x="517" y="1623" type="curve" smooth="yes"/>
      <point x="501" y="1624"/>
      <point x="483" y="1624"/>
      <point x="463" y="1624" type="curve" smooth="yes"/>
      <point x="410" y="1624"/>
      <point x="354" y="1620"/>
      <point x="294" y="1611" type="curve" smooth="yes"/>
      <point x="234" y="1602"/>
      <point x="188" y="1593"/>
      <point x="155" y="1584" type="curve" smooth="yes"/>
      <point x="105" y="1571" type="line"/>
      <point x="105" y="1339" type="line"/>
      <point x="235" y="1339" type="line"/>
      <point x="270" y="1386"/>
      <point x="323" y="1409"/>
      <point x="393" y="1409" type="curve" smooth="yes"/>
      <point x="497" y="1409"/>
      <point x="549" y="1368"/>
      <point x="549" y="1287" type="curve" smooth="yes"/>
      <point x="549" y="1254" type="line"/>
      <point x="495" y="1273"/>
      <point x="432" y="1282"/>
      <point x="360" y="1282" type="curve" smooth="yes"/>
      <point x="319" y="1282"/>
      <point x="280" y="1277"/>
      <point x="242" y="1267" type="curve" smooth="yes"/>
      <point x="204" y="1257"/>
      <point x="170" y="1242"/>
      <point x="139" y="1223" type="curve" smooth="yes"/>
      <point x="108" y="1204"/>
      <point x="83" y="1179"/>
      <point x="65" y="1148" type="curve" smooth="yes"/>
      <point x="47" y="1117"/>
      <point x="38" y="1082"/>
      <point x="38" y="1044" type="curve"/>
    </contour>
    <contour>
      <point x="400" y="1058" type="line"/>
      <point x="400" y="1079"/>
      <point x="407" y="1098"/>
      <point x="422" y="1115" type="curve" smooth="yes"/>
      <point x="437" y="1132"/>
      <point x="455" y="1140"/>
      <point x="476" y="1140" type="curve" smooth="yes"/>
      <point x="487" y="1140"/>
      <point x="498" y="1139"/>
      <point x="510" y="1137" type="curve" smooth="yes"/>
      <point x="522" y="1135"/>
      <point x="532" y="1132"/>
      <point x="539" y="1129" type="curve" smooth="yes"/>
      <point x="549" y="1125" type="line"/>
      <point x="549" y="1016" type="line"/>
      <point x="540" y="1007" type="line" smooth="yes"/>
      <point x="536" y="1003"/>
      <point x="527" y="998"/>
      <point x="513" y="992" type="curve" smooth="yes"/>
      <point x="499" y="986"/>
      <point x="484" y="983"/>
      <point x="468" y="983" type="curve" smooth="yes"/>
      <point x="447" y="983"/>
      <point x="430" y="990"/>
      <point x="417" y="1004" type="curve" smooth="yes"/>
      <point x="404" y="1018"/>
      <point x="398" y="1036"/>
      <point x="398" y="1059" type="curve"/>
    </contour>
  </outline>
</glyph>
<glyph name="twosuperior" format="1">
  <advance width="805"/>
  <unicode hex="00B2"/>
  <outline>
    <contour>
      <point x="71" y="286" type="line"/>
      <point x="759" y="286" type="line"/>
      <point x="759" y="570" type="line"/>
      <point x="655" y="570" type="line"/>
      <point x="655" y="536"/>
      <point x="643" y="513"/>
      <point x="620" y="501" type="curve" smooth="yes"/>
      <point x="597" y="489"/>
      <point x="565" y="482"/>
      <point x="524" y="481" type="curve"/>
      <point x="427" y="481" type="line"/>
      <point x="537" y="564"/>
      <point x="609" y="627"/>
      <point x="643" y="671" type="curve" smooth="yes"/>
      <point x="686" y="725"/>
      <point x="707" y="783"/>
      <point x="707" y="845" type="curve" smooth="yes"/>
      <point x="707" y="929"/>
      <point x="677" y="995"/>
      <point x="618" y="1043" type="curve" smooth="yes"/>
      <point x="559" y="1091"/>
      <point x="484" y="1117"/>
      <point x="393" y="1120" type="curve" smooth="yes"/>
      <point x="338" y="1122"/>
      <point x="284" y="1113"/>
      <point x="232" y="1094" type="curve" smooth="yes"/>
      <point x="180" y="1075"/>
      <point x="136" y="1044"/>
      <point x="100" y="1002" type="curve" smooth="yes"/>
      <point x="64" y="960"/>
      <point x="46" y="911"/>
      <point x="46" y="856" type="curve"/>
      <point x="44" y="765"/>
      <point x="74" y="692"/>
      <point x="135" y="637" type="curve"/>
      <point x="272" y="742" type="line"/>
      <point x="247" y="765"/>
      <point x="234" y="791"/>
      <point x="234" y="819" type="curve" smooth="yes"/>
      <point x="234" y="844"/>
      <point x="241" y="864"/>
      <point x="255" y="880" type="curve" smooth="yes"/>
      <point x="269" y="896"/>
      <point x="289" y="904"/>
      <point x="315" y="904" type="curve" smooth="yes"/>
      <point x="336" y="904"/>
      <point x="354" y="894"/>
      <point x="370" y="875" type="curve" smooth="yes"/>
      <point x="386" y="856"/>
      <point x="395" y="831"/>
      <point x="397" y="800" type="curve"/>
      <point x="397" y="767"/>
      <point x="390" y="736"/>
      <point x="376" y="707" type="curve" smooth="yes"/>
      <point x="362" y="678"/>
      <point x="347" y="655"/>
      <point x="331" y="639" type="curve" smooth="yes"/>
      <point x="315" y="623"/>
      <point x="292" y="602"/>
      <point x="261" y="576" type="curve" smooth="yes"/>
      <point x="209" y="533"/>
      <point x="144" y="496"/>
      <point x="67" y="465" type="curve"/>
    </contour>
  </outline>
</glyph>
<glyph name="threesuperior" format="1">
  <advance width="769"/>
  <unicode hex="00B3"/>
  <outline>
    <contour>
      <point x="65" y="529" type="line"/>
      <point x="65" y="326" type="line"/>
      <point x="100" y="303"/>
      <point x="140" y="288"/>
      <point x="184" y="281" type="curve" smooth="yes"/>
      <point x="228" y="274"/>
      <point x="281" y="270"/>
      <point x="343" y="270" type="curve" smooth="yes"/>
      <point x="460" y="270"/>
      <point x="553" y="295"/>
      <point x="621" y="345" type="curve" smooth="yes"/>
      <point x="689" y="395"/>
      <point x="723" y="466"/>
      <point x="723" y="558" type="curve" smooth="yes"/>
      <point x="723" y="613"/>
      <point x="703" y="662"/>
      <point x="663" y="706" type="curve" smooth="yes"/>
      <point x="623" y="750"/>
      <point x="574" y="774"/>
      <point x="517" y="779" type="curve"/>
      <point x="628" y="870"/>
      <point x="684" y="916"/>
      <point x="684" y="917" type="curve"/>
      <point x="684" y="1071" type="line"/>
      <point x="58" y="1071" type="line"/>
      <point x="58" y="806" type="line"/>
      <point x="171" y="805" type="line"/>
      <point x="176" y="823"/>
      <point x="179" y="835"/>
      <point x="181" y="841" type="curve" smooth="yes"/>
      <point x="183" y="847"/>
      <point x="187" y="855"/>
      <point x="193" y="865" type="curve" smooth="yes"/>
      <point x="199" y="875"/>
      <point x="206" y="881"/>
      <point x="215" y="884" type="curve" smooth="yes"/>
      <point x="224" y="887"/>
      <point x="236" y="888"/>
      <point x="251" y="888" type="curve" smooth="yes"/>
      <point x="379" y="888" type="line"/>
      <point x="379" y="882" type="line"/>
      <point x="179" y="712" type="line"/>
      <point x="179" y="619" type="line"/>
      <point x="180" y="616" type="line"/>
      <point x="191" y="614" type="line" smooth="yes"/>
      <point x="194" y="614"/>
      <point x="203" y="616"/>
      <point x="219" y="620" type="curve" smooth="yes"/>
      <point x="235" y="624"/>
      <point x="251" y="626"/>
      <point x="266" y="626" type="curve" smooth="yes"/>
      <point x="305" y="626"/>
      <point x="339" y="618"/>
      <point x="368" y="603" type="curve" smooth="yes"/>
      <point x="397" y="588"/>
      <point x="412" y="563"/>
      <point x="412" y="528" type="curve" smooth="yes"/>
      <point x="412" y="498"/>
      <point x="399" y="476"/>
      <point x="372" y="462" type="curve" smooth="yes"/>
      <point x="345" y="448"/>
      <point x="315" y="441"/>
      <point x="281" y="441" type="curve" smooth="yes"/>
      <point x="207" y="441"/>
      <point x="135" y="470"/>
      <point x="64" y="527" type="curve"/>
    </contour>
  </outline>
</glyph>
<glyph name="ordmasculine" format="1">
  <advance width="993"/>
  <unicode hex="00BA"/>
  <outline>
    <contour>
      <point x="51" y="688" type="line"/>
      <point x="51" y="558"/>
      <point x="92" y="456"/>
      <point x="174" y="382" type="curve" smooth="yes"/>
      <point x="256" y="308"/>
      <point x="364" y="271"/>
      <point x="498" y="271" type="curve" smooth="yes"/>
      <point x="632" y="271"/>
      <point x="740" y="308"/>
      <point x="822" y="382" type="curve" smooth="yes"/>
      <point x="904" y="456"/>
      <point x="945" y="558"/>
      <point x="945" y="688" type="curve" smooth="yes"/>
      <point x="945" y="817"/>
      <point x="905" y="916"/>
      <point x="826" y="986" type="curve" smooth="yes"/>
      <point x="747" y="1056"/>
      <point x="638" y="1091"/>
      <point x="499" y="1091" type="curve" smooth="yes"/>
      <point x="361" y="1091"/>
      <point x="252" y="1056"/>
      <point x="172" y="986" type="curve" smooth="yes"/>
      <point x="92" y="916"/>
      <point x="52" y="817"/>
      <point x="52" y="688" type="curve"/>
    </contour>
    <contour>
      <point x="397" y="686" type="line"/>
      <point x="397" y="711"/>
      <point x="398" y="732"/>
      <point x="400" y="750" type="curve" smooth="yes"/>
      <point x="402" y="768"/>
      <point x="406" y="786"/>
      <point x="413" y="804" type="curve" smooth="yes"/>
      <point x="420" y="822"/>
      <point x="430" y="836"/>
      <point x="444" y="845" type="curve" smooth="yes"/>
      <point x="458" y="854"/>
      <point x="476" y="859"/>
      <point x="498" y="859" type="curve" smooth="yes"/>
      <point x="520" y="859"/>
      <point x="538" y="854"/>
      <point x="552" y="845" type="curve" smooth="yes"/>
      <point x="566" y="836"/>
      <point x="576" y="822"/>
      <point x="582" y="804" type="curve" smooth="yes"/>
      <point x="588" y="786"/>
      <point x="592" y="768"/>
      <point x="594" y="750" type="curve" smooth="yes"/>
      <point x="596" y="732"/>
      <point x="597" y="710"/>
      <point x="597" y="685" type="curve" smooth="yes"/>
      <point x="597" y="562"/>
      <point x="563" y="500"/>
      <point x="495" y="500" type="curve" smooth="yes"/>
      <point x="428" y="500"/>
      <point x="394" y="562"/>
      <point x="394" y="685" type="curve"/>
    </contour>
  </outline>
</glyph>
<glyph name="onequarter" format="1">
  <advance width="1674"/>
  <unicode hex="00BC"/>
  <outline>
    <contour>
      <point x="79" y="818" type="line"/>
      <point x="482" y="818" type="line"/>
      <point x="482" y="1008" type="line"/>
      <point x="426" y="1008" type="line"/>
      <point x="422" y="1623" type="line"/>
      <point x="35" y="1525" type="line"/>
      <point x="35" y="1374" type="line"/>
      <point x="131" y="1375" type="line"/>
      <point x="131" y="1008" type="line"/>
      <point x="78" y="1008" type="line"/>
    </contour>
    <contour>
      <point x="316" y="0" type="line"/>
      <point x="669" y="0" type="line"/>
      <point x="1171" y="1623" type="line"/>
      <point x="807" y="1623" type="line"/>
    </contour>
    <contour>
      <point x="1504" y="170" type="line"/>
      <point x="1504" y="247" type="line"/>
      <point x="1638" y="247" type="line"/>
      <point x="1638" y="398" type="line"/>
      <point x="1505" y="397" type="line"/>
      <point x="1505" y="788" type="line"/>
      <point x="1247" y="789" type="line"/>
      <point x="923" y="405" type="line"/>
      <point x="923" y="247" type="line"/>
      <point x="1236" y="247" type="line"/>
      <point x="1236" y="170" type="line"/>
      <point x="1162" y="170" type="line"/>
      <point x="1162" y="1" type="line"/>
      <point x="1576" y="1" type="line"/>
      <point x="1576" y="170" type="line"/>
    </contour>
    <contour>
      <point x="1236" y="398" type="line"/>
      <point x="1125" y="399" type="line"/>
      <point x="1236" y="536" type="line"/>
    </contour>
  </outline>
</glyph>
<glyph name="questiondown" format="1">
  <advance width="1288"/>
  <unicode hex="00BF"/>
  <outline>
    <contour>
      <point x="953" y="1180" type="line"/>
      <point x="952" y="828" type="line"/>
      <point x="688" y="709"/>
      <point x="556" y="590"/>
      <point x="556" y="471" type="curve" smooth="yes"/>
      <point x="556" y="460"/>
      <point x="557" y="448"/>
      <point x="559" y="436" type="curve" smooth="yes"/>
      <point x="561" y="424"/>
      <point x="565" y="410"/>
      <point x="571" y="394" type="curve" smooth="yes"/>
      <point x="577" y="378"/>
      <point x="587" y="365"/>
      <point x="601" y="355" type="curve" smooth="yes"/>
      <point x="615" y="345"/>
      <point x="632" y="340"/>
      <point x="652" y="340" type="curve" smooth="yes"/>
      <point x="732" y="340"/>
      <point x="775" y="394"/>
      <point x="782" y="502" type="curve"/>
      <point x="1254" y="502" type="line"/>
      <point x="1245" y="351"/>
      <point x="1184" y="227"/>
      <point x="1071" y="130" type="curve" smooth="yes"/>
      <point x="958" y="33"/>
      <point x="816" y="-16"/>
      <point x="645" y="-16" type="curve" smooth="yes"/>
      <point x="532" y="-16"/>
      <point x="430" y="4"/>
      <point x="338" y="44" type="curve" smooth="yes"/>
      <point x="246" y="84"/>
      <point x="174" y="139"/>
      <point x="122" y="210" type="curve" smooth="yes"/>
      <point x="70" y="281"/>
      <point x="44" y="360"/>
      <point x="44" y="448" type="curve" smooth="yes"/>
      <point x="44" y="493"/>
      <point x="50" y="536"/>
      <point x="63" y="577" type="curve" smooth="yes"/>
      <point x="76" y="618"/>
      <point x="92" y="654"/>
      <point x="112" y="685" type="curve" smooth="yes"/>
      <point x="132" y="716"/>
      <point x="158" y="746"/>
      <point x="190" y="775" type="curve" smooth="yes"/>
      <point x="222" y="804"/>
      <point x="253" y="828"/>
      <point x="283" y="848" type="curve" smooth="yes"/>
      <point x="313" y="868"/>
      <point x="349" y="888"/>
      <point x="390" y="908" type="curve" smooth="yes"/>
      <point x="431" y="928"/>
      <point x="467" y="944"/>
      <point x="498" y="956" type="curve" smooth="yes"/>
      <point x="529" y="968"/>
      <point x="565" y="981"/>
      <point x="606" y="995" type="curve"/>
      <point x="606" y="1182" type="line"/>
    </contour>
    <contour>
      <point x="773" y="1748" type="line"/>
      <point x="692" y="1748"/>
      <point x="624" y="1725"/>
      <point x="569" y="1680" type="curve" smooth="yes"/>
      <point x="514" y="1635"/>
      <point x="486" y="1574"/>
      <point x="486" y="1497" type="curve" smooth="yes"/>
      <point x="486" y="1422"/>
      <point x="513" y="1362"/>
      <point x="566" y="1318" type="curve" smooth="yes"/>
      <point x="619" y="1274"/>
      <point x="688" y="1252"/>
      <point x="773" y="1252" type="curve" smooth="yes"/>
      <point x="854" y="1252"/>
      <point x="920" y="1274"/>
      <point x="972" y="1318" type="curve" smooth="yes"/>
      <point x="1024" y="1362"/>
      <point x="1050" y="1422"/>
      <point x="1050" y="1497" type="curve" smooth="yes"/>
      <point x="1050" y="1574"/>
      <point x="1024" y="1635"/>
      <point x="971" y="1680" type="curve" smooth="yes"/>
      <point x="918" y="1725"/>
      <point x="852" y="1747"/>
      <point x="773" y="1747" type="curve"/>
    </contour>
  </outline>
</glyph>
<glyph name="Eth" format="1">
  <advance width="1755"/>
  <unicode hex="00D0"/>
  <outline>
    <contour>
      <point x="224" y="952" type="line"/>
      <point x="94" y="952" type="line"/>
      <point x="94" y="653" type="line"/>
      <point x="224" y="653" type="line"/>
      <point x="224" y="351" type="line"/>
      <point x="61" y="351" type="line"/>
      <point x="61" y="0" type="line"/>
      <point x="863" y="0" type="line" smooth="yes"/>
      <point x="998" y="0"/>
      <point x="1120" y="22"/>
      <point x="1229" y="67" type="curve" smooth="yes"/>
      <point x="1338" y="112"/>
      <point x="1427" y="172"/>
      <point x="1496" y="248" type="curve" smooth="yes"/>
      <point x="1565" y="324"/>
      <point x="1618" y="410"/>
      <point x="1655" y="507" type="curve" smooth="yes"/>
      <point x="1692" y="604"/>
      <point x="1710" y="707"/>
      <point x="1710" y="816" type="curve" smooth="yes"/>
      <point x="1710" y="1080"/>
      <point x="1642" y="1280"/>
      <point x="1505" y="1417" type="curve" smooth="yes"/>
      <point x="1368" y="1554"/>
      <point x="1162" y="1622"/>
      <point x="887" y="1622" type="curve" smooth="yes"/>
      <point x="57" y="1622" type="line"/>
      <point x="57" y="1270" type="line"/>
      <point x="226" y="1270" type="line"/>
    </contour>
    <contour>
      <point x="808" y="350" type="line"/>
      <point x="777" y="350" type="line"/>
      <point x="774" y="652" type="line"/>
      <point x="859" y="652" type="line"/>
      <point x="859" y="951" type="line"/>
      <point x="773" y="951" type="line"/>
      <point x="773" y="1052" type="line"/>
      <point x="773" y="1170" type="line"/>
      <point x="773" y="1269" type="line"/>
      <point x="820" y="1269" type="line" smooth="yes"/>
      <point x="869" y="1269"/>
      <point x="912" y="1259"/>
      <point x="949" y="1240" type="curve" smooth="yes"/>
      <point x="986" y="1221"/>
      <point x="1015" y="1197"/>
      <point x="1036" y="1168" type="curve" smooth="yes"/>
      <point x="1057" y="1139"/>
      <point x="1073" y="1103"/>
      <point x="1085" y="1061" type="curve" smooth="yes"/>
      <point x="1097" y="1019"/>
      <point x="1105" y="979"/>
      <point x="1109" y="941" type="curve" smooth="yes"/>
      <point x="1113" y="903"/>
      <point x="1115" y="861"/>
      <point x="1115" y="815" type="curve" smooth="yes"/>
      <point x="1115" y="770"/>
      <point x="1112" y="727"/>
      <point x="1107" y="687" type="curve" smooth="yes"/>
      <point x="1102" y="647"/>
      <point x="1092" y="605"/>
      <point x="1078" y="562" type="curve" smooth="yes"/>
      <point x="1064" y="519"/>
      <point x="1046" y="482"/>
      <point x="1024" y="452" type="curve" smooth="yes"/>
      <point x="1002" y="422"/>
      <point x="972" y="397"/>
      <point x="935" y="377" type="curve" smooth="yes"/>
      <point x="898" y="357"/>
      <point x="855" y="347"/>
      <point x="806" y="347" type="curve"/>
    </contour>
  </outline>
</glyph>
<glyph name="germandbls" format="1">
  <advance width="1699"/>
  <unicode hex="00DF"/>
  <outline>
    <contour>
      <point x="866" y="1623" type="line"/>
      <point x="786" y="1623"/>
      <point x="714" y="1618"/>
      <point x="651" y="1607" type="curve" smooth="yes"/>
      <point x="588" y="1596"/>
      <point x="529" y="1578"/>
      <point x="475" y="1553" type="curve" smooth="yes"/>
      <point x="421" y="1528"/>
      <point x="376" y="1495"/>
      <point x="340" y="1455" type="curve" smooth="yes"/>
      <point x="304" y="1415"/>
      <point x="276" y="1364"/>
      <point x="256" y="1303" type="curve" smooth="yes"/>
      <point x="236" y="1242"/>
      <point x="226" y="1172"/>
      <point x="226" y="1092" type="curve" smooth="yes"/>
      <point x="226" y="369" type="line"/>
      <point x="54" y="369" type="line"/>
      <point x="54" y="0" type="line"/>
      <point x="905" y="0" type="line"/>
      <point x="905" y="350" type="line"/>
      <point x="888" y="349"/>
      <point x="838" y="349"/>
      <point x="754" y="349" type="curve"/>
      <point x="753" y="1131" type="line" smooth="yes"/>
      <point x="753" y="1181"/>
      <point x="766" y="1217"/>
      <point x="793" y="1240" type="curve" smooth="yes"/>
      <point x="820" y="1263"/>
      <point x="854" y="1274"/>
      <point x="895" y="1274" type="curve" smooth="yes"/>
      <point x="944" y="1274"/>
      <point x="981" y="1260"/>
      <point x="1005" y="1232" type="curve" smooth="yes"/>
      <point x="1029" y="1204"/>
      <point x="1041" y="1167"/>
      <point x="1041" y="1122" type="curve" smooth="yes"/>
      <point x="1041" y="1069"/>
      <point x="1020" y="1019"/>
      <point x="978" y="971" type="curve" smooth="yes"/>
      <point x="936" y="923"/>
      <point x="885" y="899"/>
      <point x="826" y="899" type="curve"/>
      <point x="829" y="748" type="line"/>
      <point x="946" y="748"/>
      <point x="1035" y="727"/>
      <point x="1096" y="685" type="curve" smooth="yes"/>
      <point x="1157" y="643"/>
      <point x="1187" y="591"/>
      <point x="1187" y="530" type="curve" smooth="yes"/>
      <point x="1187" y="462"/>
      <point x="1139" y="401"/>
      <point x="1042" y="346" type="curve"/>
      <point x="1043" y="-21" type="line"/>
      <point x="1146" y="-21"/>
      <point x="1238" y="-9"/>
      <point x="1319" y="16" type="curve" smooth="yes"/>
      <point x="1400" y="41"/>
      <point x="1466" y="74"/>
      <point x="1516" y="116" type="curve" smooth="yes"/>
      <point x="1566" y="158"/>
      <point x="1604" y="205"/>
      <point x="1630" y="258" type="curve" smooth="yes"/>
      <point x="1656" y="311"/>
      <point x="1669" y="367"/>
      <point x="1669" y="426" type="curve" smooth="yes"/>
      <point x="1669" y="525"/>
      <point x="1634" y="618"/>
      <point x="1564" y="705" type="curve" smooth="yes"/>
      <point x="1494" y="792"/>
      <point x="1395" y="856"/>
      <point x="1268" y="897" type="curve"/>
      <point x="1339" y="937"/>
      <point x="1394" y="987"/>
      <point x="1434" y="1048" type="curve" smooth="yes"/>
      <point x="1474" y="1109"/>
      <point x="1494" y="1171"/>
      <point x="1494" y="1235" type="curve" smooth="yes"/>
      <point x="1494" y="1275"/>
      <point x="1486" y="1313"/>
      <point x="1471" y="1350" type="curve" smooth="yes"/>
      <point x="1456" y="1387"/>
      <point x="1432" y="1422"/>
      <point x="1399" y="1455" type="curve" smooth="yes"/>
      <point x="1366" y="1488"/>
      <point x="1325" y="1517"/>
      <point x="1277" y="1541" type="curve" smooth="yes"/>
      <point x="1229" y="1565"/>
      <point x="1169" y="1584"/>
      <point x="1098" y="1598" type="curve" smooth="yes"/>
      <point x="1027" y="1612"/>
      <point x="948" y="1619"/>
      <point x="862" y="1619" type="curve"/>
    </contour>
  </outline>
</glyph>
<glyph name="eth" format="1">
  <advance width="1319"/>
  <unicode hex="00F0"/>
  <outline>
    <contour>
      <point x="1202" y="1585" type="line"/>
      <point x="988" y="1499" type="line"/>
      <point x="865" y="1602"/>
      <point x="705" y="1654"/>
      <point x="508" y="1654" type="curve" smooth="yes"/>
      <point x="415" y="1654"/>
      <point x="317" y="1643"/>
      <point x="214" y="1621" type="curve"/>
      <point x="214" y="1310" type="line"/>
      <point x="245" y="1317"/>
      <point x="287" y="1321"/>
      <point x="339" y="1321" type="curve" smooth="yes"/>
      <point x="395" y="1321"/>
      <point x="444" y="1313"/>
      <point x="485" y="1297" type="curve"/>
      <point x="305" y="1225" type="line"/>
      <point x="368" y="1068" type="line"/>
      <point x="619" y="1169" type="line"/>
      <point x="635" y="1137"/>
      <point x="651" y="1090"/>
      <point x="667" y="1029" type="curve"/>
      <point x="634" y="1029" type="line" smooth="yes"/>
      <point x="555" y="1029"/>
      <point x="482" y="1020"/>
      <point x="415" y="1002" type="curve" smooth="yes"/>
      <point x="348" y="984"/>
      <point x="291" y="960"/>
      <point x="245" y="929" type="curve" smooth="yes"/>
      <point x="199" y="898"/>
      <point x="160" y="862"/>
      <point x="128" y="820" type="curve" smooth="yes"/>
      <point x="96" y="778"/>
      <point x="72" y="733"/>
      <point x="57" y="686" type="curve" smooth="yes"/>
      <point x="42" y="639"/>
      <point x="34" y="590"/>
      <point x="34" y="539" type="curve" smooth="yes"/>
      <point x="34" y="470"/>
      <point x="47" y="402"/>
      <point x="74" y="336" type="curve" smooth="yes"/>
      <point x="101" y="270"/>
      <point x="139" y="210"/>
      <point x="189" y="157" type="curve" smooth="yes"/>
      <point x="239" y="104"/>
      <point x="303" y="61"/>
      <point x="382" y="29" type="curve" smooth="yes"/>
      <point x="461" y="-3"/>
      <point x="548" y="-19"/>
      <point x="643" y="-19" type="curve" smooth="yes"/>
      <point x="732" y="-19"/>
      <point x="812" y="-7"/>
      <point x="884" y="18" type="curve" smooth="yes"/>
      <point x="956" y="43"/>
      <point x="1016" y="77"/>
      <point x="1065" y="120" type="curve" smooth="yes"/>
      <point x="1114" y="163"/>
      <point x="1155" y="215"/>
      <point x="1188" y="275" type="curve" smooth="yes"/>
      <point x="1221" y="335"/>
      <point x="1245" y="399"/>
      <point x="1260" y="468" type="curve" smooth="yes"/>
      <point x="1275" y="537"/>
      <point x="1282" y="610"/>
      <point x="1282" y="688" type="curve" smooth="yes"/>
      <point x="1282" y="715"/>
      <point x="1282" y="735"/>
      <point x="1281" y="748" type="curve" smooth="yes"/>
      <point x="1268" y="1009"/>
      <point x="1211" y="1214"/>
      <point x="1110" y="1363" type="curve"/>
      <point x="1267" y="1426" type="line"/>
    </contour>
    <contour>
      <point x="555" y="566" type="curve" smooth="yes"/>
      <point x="555" y="705"/>
      <point x="591" y="775"/>
      <point x="664" y="775" type="curve" smooth="yes"/>
      <point x="729" y="775"/>
      <point x="762" y="703"/>
      <point x="762" y="558" type="curve" smooth="yes"/>
      <point x="762" y="540"/>
      <point x="761" y="521"/>
      <point x="759" y="500" type="curve" smooth="yes"/>
      <point x="757" y="479"/>
      <point x="753" y="455"/>
      <point x="747" y="428" type="curve" smooth="yes"/>
      <point x="741" y="401"/>
      <point x="731" y="379"/>
      <point x="717" y="362" type="curve" smooth="yes"/>
      <point x="703" y="345"/>
      <point x="686" y="336"/>
      <point x="666" y="336" type="curve" smooth="yes"/>
      <point x="592" y="336"/>
      <point x="555" y="413"/>
    </contour>
  </outline>
</glyph>
<glyph name="hbar" format="1">
  <advance width="1436"/>
  <unicode hex="0127"/>
  <outline>
    <contour>
      <point x="61" y="305" type="line"/>
      <point x="60" y="0" type="line"/>
      <point x="713" y="0" type="line"/>
      <point x="713" y="305" type="line"/>
      <point x="633" y="305" type="line"/>
      <point x="633" y="626" type="line" smooth="yes"/>
      <point x="633" y="705"/>
      <point x="667" y="744"/>
      <point x="734" y="744" type="curve" smooth="yes"/>
      <point x="789" y="744"/>
      <point x="817" y="702"/>
      <point x="818" y="619" type="curve"/>
      <point x="818" y="0" type="line"/>
      <point x="1394" y="0" type="line"/>
      <point x="1394" y="305" type="line"/>
      <point x="1308" y="305" type="line"/>
      <point x="1308" y="702" type="line" smooth="yes"/>
      <point x="1308" y="828"/>
      <point x="1277" y="924"/>
      <point x="1214" y="990" type="curve" smooth="yes"/>
      <point x="1151" y="1056"/>
      <point x="1063" y="1089"/>
      <point x="950" y="1089" type="curve" smooth="yes"/>
      <point x="927" y="1089"/>
      <point x="904" y="1087"/>
      <point x="882" y="1083" type="curve" smooth="yes"/>
      <point x="860" y="1079"/>
      <point x="842" y="1075"/>
      <point x="827" y="1071" type="curve" smooth="yes"/>
      <point x="812" y="1067"/>
      <point x="795" y="1059"/>
      <point x="777" y="1048" type="curve" smooth="yes"/>
      <point x="759" y="1037"/>
      <point x="745" y="1028"/>
      <point x="736" y="1022" type="curve" smooth="yes"/>
      <point x="727" y="1016"/>
      <point x="714" y="1004"/>
      <point x="697" y="987" type="curve" smooth="yes"/>
      <point x="680" y="970"/>
      <point x="669" y="959"/>
      <point x="664" y="954" type="curve" smooth="yes"/>
      <point x="659" y="949"/>
      <point x="647" y="936"/>
      <point x="629" y="916" type="curve"/>
      <point x="629" y="1133" type="line"/>
      <point x="804" y="1133" type="line"/>
      <point x="804" y="1272" type="line"/>
      <point x="629" y="1272" type="line"/>
      <point x="629" y="1640" type="line"/>
      <point x="56" y="1640" type="line"/>
      <point x="56" y="1332" type="line"/>
      <point x="140" y="1332" type="line"/>
      <point x="140" y="1272" type="line"/>
      <point x="56" y="1272" type="line"/>
      <point x="56" y="1133" type="line"/>
      <point x="140" y="1133" type="line"/>
      <point x="140" y="305" type="line"/>
    </contour>
  </outline>
</glyph>
<glyph name="dotlessi" format="1">
  <advance width="746"/>
  <unicode hex="0131"/>
  <outline>
    <contour>
      <point x="375" y="1072" type="move" name="top"/>
    </contour>
    <contour>
      <point x="614" y="299" type="line"/>
      <point x="614" y="1072" type="line"/>
      <point x="44" y="1008" type="line"/>
      <point x="44" y="747" type="line"/>
      <point x="133" y="747" type="line"/>
      <point x="133" y="299" type="line"/>
      <point x="51" y="299" type="line"/>
      <point x="51" y="0" type="line"/>
      <point x="698" y="0" type="line"/>
      <point x="698" y="299" type="line"/>
    </contour>
  </outline>
</glyph>
<glyph name="ij" format="1">
  <advance width="1490"/>
  <unicode hex="0133"/>
  <outline>
    <contour>
      <point x="1420" y="1072" type="line"/>
      <point x="1420" y="129" type="line" smooth="yes"/>
      <point x="1420" y="-227"/>
      <point x="1278" y="-395"/>
      <point x="817" y="-395" type="curve"/>
      <point x="815" y="-69" type="line"/>
      <point x="820" y="-70"/>
      <point x="825" y="-70"/>
      <point x="831" y="-70" type="curve" smooth="yes"/>
      <point x="874" y="-70"/>
      <point x="923" y="-51"/>
      <point x="923" y="-6" type="curve" smooth="yes"/>
      <point x="923" y="763" type="line"/>
      <point x="628" y="763" type="line"/>
      <point x="628" y="308" type="line"/>
      <point x="712" y="308" type="line"/>
      <point x="712" y="3" type="line"/>
      <point x="65" y="3" type="line"/>
      <point x="65" y="308" type="line"/>
      <point x="147" y="308" type="line"/>
      <point x="147" y="764" type="line"/>
      <point x="58" y="764" type="line"/>
      <point x="58" y="1008" type="line"/>
      <point x="628" y="1072" type="line"/>
    </contour>
    <contour>
      <point x="347" y="1138" type="curve" smooth="yes"/>
      <point x="507" y="1138"/>
      <point x="633" y="1232"/>
      <point x="633" y="1388" type="curve" smooth="yes"/>
      <point x="633" y="1538"/>
      <point x="514" y="1633"/>
      <point x="346" y="1633" type="curve" smooth="yes"/>
      <point x="185" y="1633"/>
      <point x="68" y="1539"/>
      <point x="68" y="1388" type="curve" smooth="yes"/>
      <point x="68" y="1233"/>
      <point x="192" y="1138"/>
    </contour>
    <contour>
      <point x="1136" y="1137" type="curve" smooth="yes"/>
      <point x="1296" y="1137"/>
      <point x="1422" y="1231"/>
      <point x="1422" y="1387" type="curve" smooth="yes"/>
      <point x="1422" y="1537"/>
      <point x="1303" y="1632"/>
      <point x="1135" y="1632" type="curve" smooth="yes"/>
      <point x="974" y="1632"/>
      <point x="857" y="1538"/>
      <point x="857" y="1387" type="curve" smooth="yes"/>
      <point x="857" y="1232"/>
      <point x="981" y="1137"/>
    </contour>
  </outline>
</glyph>
<glyph name="lslash" format="1">
  <advance width="892"/>
  <unicode hex="0142"/>
  <outline>
    <contour>
      <point x="691" y="305" type="line"/>
      <point x="691" y="861" type="line"/>
      <point x="901" y="974" type="line"/>
      <point x="802" y="1153" type="line"/>
      <point x="691" y="1093" type="line"/>
      <point x="691" y="1630" type="line"/>
      <point x="112" y="1630" type="line"/>
      <point x="112" y="1317" type="line"/>
      <point x="196" y="1317" type="line"/>
      <point x="196" y="828" type="line"/>
      <point x="-10" y="718" type="line"/>
      <point x="90" y="540" type="line"/>
      <point x="196" y="596" type="line"/>
      <point x="196" y="305" type="line"/>
      <point x="122" y="305" type="line"/>
      <point x="122" y="0" type="line"/>
      <point x="769" y="0" type="line"/>
      <point x="769" y="305" type="line"/>
    </contour>
  </outline>
</glyph>
<glyph name="OE" format="1">
  <advance width="2270"/>
  <unicode hex="0152"/>
  <outline>
    <contour>
      <point x="886" y="0" type="line"/>
      <point x="2206" y="0" type="line"/>
      <point x="2206" y="687" type="line"/>
      <point x="1933" y="687" type="line"/>
      <point x="1870" y="420" type="line"/>
      <point x="1857" y="350" type="line"/>
      <point x="1638" y="350" type="line"/>
      <point x="1638" y="636" type="line"/>
      <point x="1843" y="636" type="line"/>
      <point x="1843" y="988" type="line"/>
      <point x="1638" y="988" type="line"/>
      <point x="1638" y="1258" type="line"/>
      <point x="1851" y="1258" type="line"/>
      <point x="1927" y="956" type="line"/>
      <point x="2195" y="957" type="line"/>
      <point x="2195" y="1610" type="line"/>
      <point x="880" y="1610" type="line" smooth="yes"/>
      <point x="716" y="1610"/>
      <point x="570" y="1575"/>
      <point x="443" y="1506" type="curve" smooth="yes"/>
      <point x="316" y="1437"/>
      <point x="218" y="1340"/>
      <point x="149" y="1216" type="curve" smooth="yes"/>
      <point x="80" y="1092"/>
      <point x="45" y="951"/>
      <point x="45" y="792" type="curve" smooth="yes"/>
      <point x="46" y="552"/>
      <point x="122" y="360"/>
      <point x="274" y="216" type="curve" smooth="yes"/>
      <point x="426" y="72"/>
      <point x="629" y="0"/>
      <point x="884" y="0" type="curve" smooth="yes"/>
    </contour>
    <contour>
      <point x="661" y="755" type="line"/>
      <point x="661" y="817" type="line"/>
      <point x="659" y="852"/>
      <point x="659" y="887"/>
      <point x="661" y="923" type="curve" smooth="yes"/>
      <point x="663" y="959"/>
      <point x="665" y="993"/>
      <point x="667" y="1026" type="curve" smooth="yes"/>
      <point x="669" y="1059"/>
      <point x="675" y="1089"/>
      <point x="685" y="1117" type="curve" smooth="yes"/>
      <point x="695" y="1145"/>
      <point x="707" y="1169"/>
      <point x="722" y="1190" type="curve" smooth="yes"/>
      <point x="737" y="1211"/>
      <point x="757" y="1227"/>
      <point x="783" y="1239" type="curve" smooth="yes"/>
      <point x="809" y="1251"/>
      <point x="839" y="1257"/>
      <point x="874" y="1257" type="curve" smooth="yes"/>
      <point x="1084" y="1257" type="line"/>
      <point x="1084" y="350" type="line"/>
      <point x="885" y="350" type="line" smooth="yes"/>
      <point x="856" y="350"/>
      <point x="830" y="354"/>
      <point x="807" y="362" type="curve" smooth="yes"/>
      <point x="784" y="370"/>
      <point x="765" y="380"/>
      <point x="750" y="393" type="curve" smooth="yes"/>
      <point x="735" y="406"/>
      <point x="722" y="423"/>
      <point x="711" y="445" type="curve" smooth="yes"/>
      <point x="700" y="467"/>
      <point x="691" y="488"/>
      <point x="685" y="509" type="curve" smooth="yes"/>
      <point x="679" y="530"/>
      <point x="674" y="555"/>
      <point x="671" y="585" type="curve" smooth="yes"/>
      <point x="668" y="615"/>
      <point x="666" y="642"/>
      <point x="665" y="666" type="curve" smooth="yes"/>
      <point x="664" y="690"/>
      <point x="663" y="719"/>
      <point x="663" y="754" type="curve"/>
    </contour>
  </outline>
</glyph>
<glyph name="uni0311" format="1">
  <advance width="926"/>
  <unicode hex="0311"/>
  <outline>
    <contour>
      <point x="463" y="1072" type="move" name="_top"/>
    </contour>
    <contour>
      <point x="462" y="1621" type="line"/>
      <point x="329" y="1621"/>
      <point x="229" y="1588"/>
      <point x="161" y="1521" type="curve" smooth="yes"/>
      <point x="93" y="1454"/>
      <point x="59" y="1362"/>
      <point x="59" y="1244" type="curve"/>
      <point x="311" y="1244" type="line"/>
      <point x="311" y="1295"/>
      <point x="326" y="1334"/>
      <point x="356" y="1362" type="curve" smooth="yes"/>
      <point x="386" y="1390"/>
      <point x="422" y="1404"/>
      <point x="463" y="1404" type="curve" smooth="yes"/>
      <point x="504" y="1404"/>
      <point x="540" y="1390"/>
      <point x="570" y="1362" type="curve" smooth="yes"/>
      <point x="600" y="1334"/>
      <point x="615" y="1294"/>
      <point x="615" y="1243" type="curve"/>
      <point x="867" y="1243" type="line"/>
      <point x="867" y="1360"/>
      <point x="833" y="1452"/>
      <point x="764" y="1519" type="curve" smooth="yes"/>
      <point x="695" y="1586"/>
      <point x="595" y="1619"/>
      <point x="464" y="1619" type="curve"/>
    </contour>
  </outline>
</glyph>
<glyph name="quotedblright" format="1">
  <advance width="1300"/>
  <unicode hex="201D"/>
  <outline>
    <contour>
      <point x="715" y="1034" type="line"/>
      <point x="715" y="809" type="line"/>
      <point x="898" y="809"/>
      <point x="1033" y="852"/>
      <point x="1120" y="938" type="curve" smooth="yes"/>
      <point x="1207" y="1024"/>
      <point x="1250" y="1160"/>
      <point x="1250" y="1345" type="curve" smooth="yes"/>
      <point x="1250" y="1426"/>
      <point x="1242" y="1518"/>
      <point x="1226" y="1621" type="curve"/>
      <point x="716" y="1621" type="line"/>
      <point x="716" y="1255" type="line"/>
      <point x="905" y="1255" type="line"/>
      <point x="905" y="1227"/>
      <point x="905" y="1205"/>
      <point x="904" y="1190" type="curve" smooth="yes"/>
      <point x="903" y="1175"/>
      <point x="901" y="1157"/>
      <point x="897" y="1137" type="curve" smooth="yes"/>
      <point x="893" y="1117"/>
      <point x="887" y="1102"/>
      <point x="879" y="1091" type="curve" smooth="yes"/>
      <point x="871" y="1080"/>
      <point x="860" y="1069"/>
      <point x="846" y="1059" type="curve" smooth="yes"/>
      <point x="832" y="1049"/>
      <point x="814" y="1042"/>
      <point x="792" y="1038" type="curve" smooth="yes"/>
      <point x="770" y="1034"/>
      <point x="744" y="1032"/>
      <point x="714" y="1032" type="curve"/>
    </contour>
    <contour>
      <point x="63" y="1032" type="line"/>
      <point x="63" y="807" type="line"/>
      <point x="246" y="807"/>
      <point x="381" y="850"/>
      <point x="468" y="936" type="curve" smooth="yes"/>
      <point x="555" y="1022"/>
      <point x="598" y="1158"/>
      <point x="598" y="1343" type="curve" smooth="yes"/>
      <point x="598" y="1424"/>
      <point x="590" y="1516"/>
      <point x="574" y="1619" type="curve"/>
      <point x="64" y="1619" type="line"/>
      <point x="64" y="1253" type="line"/>
      <point x="253" y="1253" type="line"/>
      <point x="253" y="1225"/>
      <point x="253" y="1203"/>
      <point x="252" y="1188" type="curve" smooth="yes"/>
      <point x="251" y="1173"/>
      <point x="249" y="1155"/>
      <point x="245" y="1135" type="curve" smooth="yes"/>
      <point x="241" y="1115"/>
      <point x="235" y="1100"/>
      <point x="227" y="1089" type="curve" smooth="yes"/>
      <point x="219" y="1078"/>
      <point x="208" y="1067"/>
      <point x="194" y="1057" type="curve" smooth="yes"/>
      <point x="180" y="1047"/>
      <point x="162" y="1040"/>
      <point x="140" y="1036" type="curve" smooth="yes"/>
      <point x="118" y="1032"/>
      <point x="92" y="1030"/>
      <point x="62" y="1030" type="curve"/>
    </contour>
  </outline>
</glyph>
<glyph name="bullet" format="1">
  <advance width="899"/>
  <unicode hex="2022"/>
  <outline>
    <contour>
      <point x="57" y="537" type="line"/>
      <point x="57" y="473"/>
      <point x="68" y="415"/>
      <point x="89" y="364" type="curve" smooth="yes"/>
      <point x="110" y="313"/>
      <point x="139" y="271"/>
      <point x="176" y="239" type="curve" smooth="yes"/>
      <point x="213" y="207"/>
      <point x="254" y="183"/>
      <point x="300" y="166" type="curve" smooth="yes"/>
      <point x="346" y="149"/>
      <point x="395" y="140"/>
      <point x="446" y="140" type="curve" smooth="yes"/>
      <point x="497" y="140"/>
      <point x="546" y="148"/>
      <point x="593" y="165" type="curve" smooth="yes"/>
      <point x="640" y="182"/>
      <point x="682" y="206"/>
      <point x="720" y="238" type="curve" smooth="yes"/>
      <point x="758" y="270"/>
      <point x="788" y="312"/>
      <point x="811" y="364" type="curve" smooth="yes"/>
      <point x="834" y="416"/>
      <point x="845" y="473"/>
      <point x="845" y="536" type="curve" smooth="yes"/>
      <point x="845" y="597"/>
      <point x="833" y="652"/>
      <point x="810" y="702" type="curve" smooth="yes"/>
      <point x="787" y="752"/>
      <point x="756" y="792"/>
      <point x="718" y="823" type="curve" smooth="yes"/>
      <point x="680" y="854"/>
      <point x="637" y="877"/>
      <point x="590" y="893" type="curve" smooth="yes"/>
      <point x="543" y="909"/>
      <point x="494" y="917"/>
      <point x="443" y="917" type="curve" smooth="yes"/>
      <point x="393" y="917"/>
      <point x="345" y="909"/>
      <point x="299" y="893" type="curve" smooth="yes"/>
      <point x="253" y="877"/>
      <point x="212" y="854"/>
      <point x="175" y="824" type="curve" smooth="yes"/>
      <point x="138" y="794"/>
      <point x="108" y="755"/>
      <point x="86" y="707" type="curve" smooth="yes"/>
      <point x="64" y="659"/>
      <point x="53" y="605"/>
      <point x="53" y="546" type="curve"/>
    </contour>
  </outline>
</glyph>
<glyph name="Euro" format="1">
  <advance width="1499"/>
  <unicode hex="20AC"/>
  <outline>
    <contour>
      <point x="140" y="1091" type="line"/>
      <point x="21" y="1091" type="line"/>
      <point x="21" y="867" type="line"/>
      <point x="109" y="867" type="line"/>
      <point x="108" y="853"/>
      <point x="108" y="832"/>
      <point x="108" y="804" type="curve" smooth="yes"/>
      <point x="108" y="776"/>
      <point x="108" y="755"/>
      <point x="109" y="741" type="curve"/>
      <point x="21" y="741" type="line"/>
      <point x="21" y="517" type="line"/>
      <point x="141" y="517" type="line"/>
      <point x="160" y="440"/>
      <point x="186" y="370"/>
      <point x="220" y="307" type="curve" smooth="yes"/>
      <point x="254" y="244"/>
      <point x="296" y="188"/>
      <point x="346" y="138" type="curve" smooth="yes"/>
      <point x="396" y="88"/>
      <point x="456" y="49"/>
      <point x="527" y="21" type="curve" smooth="yes"/>
      <point x="598" y="-7"/>
      <point x="676" y="-21"/>
      <point x="762" y="-21" type="curve" smooth="yes"/>
      <point x="811" y="-21"/>
      <point x="853" y="-19"/>
      <point x="888" y="-16" type="curve" smooth="yes"/>
      <point x="923" y="-13"/>
      <point x="963" y="-4"/>
      <point x="1008" y="12" type="curve" smooth="yes"/>
      <point x="1053" y="28"/>
      <point x="1090" y="50"/>
      <point x="1120" y="79" type="curve"/>
      <point x="1154" y="8" type="line"/>
      <point x="1465" y="8" type="line"/>
      <point x="1466" y="640" type="line"/>
      <point x="1168" y="640" type="line"/>
      <point x="1169" y="605"/>
      <point x="1165" y="570"/>
      <point x="1157" y="536" type="curve" smooth="yes"/>
      <point x="1149" y="502"/>
      <point x="1136" y="470"/>
      <point x="1119" y="440" type="curve" smooth="yes"/>
      <point x="1102" y="410"/>
      <point x="1077" y="386"/>
      <point x="1045" y="368" type="curve" smooth="yes"/>
      <point x="1013" y="350"/>
      <point x="976" y="341"/>
      <point x="934" y="341" type="curve" smooth="yes"/>
      <point x="845" y="341"/>
      <point x="785" y="399"/>
      <point x="754" y="514" type="curve"/>
      <point x="934" y="514" type="line"/>
      <point x="934" y="738" type="line"/>
      <point x="727" y="738" type="line"/>
      <point x="727" y="801" type="line"/>
      <point x="727" y="864" type="line"/>
      <point x="934" y="864" type="line"/>
      <point x="934" y="1088" type="line"/>
      <point x="751" y="1088" type="line"/>
      <point x="782" y="1221"/>
      <point x="843" y="1287"/>
      <point x="934" y="1287" type="curve" smooth="yes"/>
      <point x="976" y="1287"/>
      <point x="1013" y="1278"/>
      <point x="1045" y="1260" type="curve" smooth="yes"/>
      <point x="1077" y="1242"/>
      <point x="1102" y="1218"/>
      <point x="1119" y="1188" type="curve" smooth="yes"/>
      <point x="1136" y="1158"/>
      <point x="1149" y="1126"/>
      <point x="1157" y="1092" type="curve" smooth="yes"/>
      <point x="1165" y="1058"/>
      <point x="1169" y="1023"/>
      <point x="1168" y="988" type="curve"/>
      <point x="1466" y="988" type="line"/>
      <point x="1465" y="1620" type="line"/>
      <point x="1154" y="1620" type="line"/>
      <point x="1120" y="1549" type="line"/>
      <point x="1090" y="1578"/>
      <point x="1052" y="1600"/>
      <point x="1007" y="1616" type="curve" smooth="yes"/>
      <point x="962" y="1632"/>
      <point x="922" y="1641"/>
      <point x="887" y="1644" type="curve" smooth="yes"/>
      <point x="852" y="1647"/>
      <point x="810" y="1649"/>
      <point x="761" y="1649" type="curve" smooth="yes"/>
      <point x="692" y="1649"/>
      <point x="627" y="1639"/>
      <point x="567" y="1619" type="curve" smooth="yes"/>
      <point x="507" y="1599"/>
      <point x="454" y="1572"/>
      <point x="409" y="1538" type="curve" smooth="yes"/>
      <point x="364" y="1504"/>
      <point x="323" y="1463"/>
      <point x="287" y="1415" type="curve" smooth="yes"/>
      <point x="251" y="1367"/>
      <point x="221" y="1316"/>
      <point x="197" y="1262" type="curve" smooth="yes"/>
      <point x="173" y="1208"/>
      <point x="154" y="1149"/>
      <point x="139" y="1086" type="curve" smooth="yes"/>
    </contour>
  </outline>
</glyph>
<glyph name="uniFB03" format="1">
  <advance width="2498"/>
  <unicode hex="FB03"/>
  <outline>
    <contour>
      <point x="137" y="1207" type="line"/>
      <point x="137" y="1476"/>
      <point x="264" y="1610"/>
      <point x="517" y="1610" type="curve" smooth="yes"/>
      <point x="570" y="1610"/>
      <point x="623" y="1606"/>
      <point x="677" y="1597" type="curve" smooth="yes"/>
      <point x="731" y="1588"/>
      <point x="767" y="1581"/>
      <point x="785" y="1576" type="curve" smooth="yes"/>
      <point x="803" y="1571"/>
      <point x="816" y="1567"/>
      <point x="825" y="1564" type="curve"/>
      <point x="825" y="1253" type="line"/>
      <point x="786" y="1262"/>
      <point x="754" y="1266"/>
      <point x="729" y="1266" type="curve" smooth="yes"/>
      <point x="687" y="1266"/>
      <point x="657" y="1252"/>
      <point x="639" y="1224" type="curve" smooth="yes"/>
      <point x="621" y="1196"/>
      <point x="614" y="1146"/>
      <point x="618" y="1074" type="curve"/>
      <point x="1013" y="1074" type="line"/>
      <point x="1013" y="1076"/>
      <point x="1012" y="1121"/>
      <point x="1011" y="1209" type="curve"/>
      <point x="1011" y="1478"/>
      <point x="1138" y="1612"/>
      <point x="1391" y="1612" type="curve" smooth="yes"/>
      <point x="1444" y="1612"/>
      <point x="1497" y="1608"/>
      <point x="1551" y="1599" type="curve" smooth="yes"/>
      <point x="1605" y="1590"/>
      <point x="1641" y="1583"/>
      <point x="1659" y="1578" type="curve" smooth="yes"/>
      <point x="1677" y="1573"/>
      <point x="1690" y="1569"/>
      <point x="1699" y="1566" type="curve"/>
      <point x="1699" y="1255" type="line"/>
      <point x="1660" y="1264"/>
      <point x="1628" y="1268"/>
      <point x="1603" y="1268" type="curve" smooth="yes"/>
      <point x="1561" y="1268"/>
      <point x="1531" y="1254"/>
      <point x="1513" y="1226" type="curve" smooth="yes"/>
      <point x="1495" y="1198"/>
      <point x="1488" y="1148"/>
      <point x="1492" y="1076" type="curve"/>
      <point x="2371" y="1076" type="line"/>
      <point x="2371" y="309" type="line"/>
      <point x="2455" y="309" type="line"/>
      <point x="2455" y="4" type="line"/>
      <point x="1808" y="4" type="line"/>
      <point x="1808" y="309" type="line"/>
      <point x="1890" y="309" type="line"/>
      <point x="1890" y="765" type="line"/>
      <point x="1499" y="765" type="line"/>
      <point x="1499" y="309" type="line"/>
      <point x="1609" y="309" type="line"/>
      <point x="1609" y="4" type="line"/>
      <point x="929" y="4" type="line"/>
      <point x="929" y="309" type="line"/>
      <point x="1013" y="309" type="line"/>
      <point x="1013" y="765" type="line"/>
      <point x="624" y="765" type="line"/>
      <point x="624" y="309" type="line"/>
      <point x="734" y="309" type="line"/>
      <point x="734" y="4" type="line"/>
      <point x="54" y="4" type="line"/>
      <point x="54" y="309" type="line"/>
      <point x="138" y="309" type="line"/>
      <point x="138" y="765" type="line"/>
      <point x="54" y="765" type="line"/>
      <point x="54" y="1076" type="line"/>
      <point x="137" y="1076" type="line"/>
      <point x="137" y="1078"/>
      <point x="136" y="1123"/>
      <point x="135" y="1211" type="curve"/>
    </contour>
    <contour>
      <point x="2090" y="1139" type="line"/>
      <point x="2171" y="1139"/>
      <point x="2239" y="1161"/>
      <point x="2294" y="1206" type="curve" smooth="yes"/>
      <point x="2349" y="1251"/>
      <point x="2376" y="1312"/>
      <point x="2376" y="1389" type="curve" smooth="yes"/>
      <point x="2376" y="1464"/>
      <point x="2349" y="1524"/>
      <point x="2296" y="1568" type="curve" smooth="yes"/>
      <point x="2243" y="1612"/>
      <point x="2174" y="1634"/>
      <point x="2089" y="1634" type="curve" smooth="yes"/>
      <point x="2008" y="1634"/>
      <point x="1941" y="1612"/>
      <point x="1889" y="1568" type="curve" smooth="yes"/>
      <point x="1837" y="1524"/>
      <point x="1811" y="1464"/>
      <point x="1811" y="1389" type="curve" smooth="yes"/>
      <point x="1811" y="1312"/>
      <point x="1837" y="1251"/>
      <point x="1890" y="1206" type="curve" smooth="yes"/>
      <point x="1943" y="1161"/>
      <point x="2009" y="1138"/>
      <point x="2088" y="1138" type="curve"/>
    </contour>
  </outline>
</glyph>
<glyph name="uniFB04" format="1">
  <advance width="2475"/>
  <unicode hex="FB04"/>
  <outline>
    <contour>
      <point x="137" y="1207" type="line"/>
      <point x="138" y="1119"/>
      <point x="139" y="1074"/>
      <point x="139" y="1072" type="curve"/>
      <point x="56" y="1072" type="line"/>
      <point x="56" y="761" type="line"/>
      <point x="140" y="761" type="line"/>
      <point x="140" y="305" type="line"/>
      <point x="56" y="305" type="line"/>
      <point x="56" y="0" type="line"/>
      <point x="736" y="0" type="line"/>
      <point x="736" y="305" type="line"/>
      <point x="626" y="305" type="line"/>
      <point x="626" y="761" type="line"/>
      <point x="1015" y="761" type="line"/>
      <point x="1015" y="305" type="line"/>
      <point x="931" y="305" type="line"/>
      <point x="931" y="0" type="line"/>
      <point x="1611" y="0" type="line"/>
      <point x="1611" y="305" type="line"/>
      <point x="1501" y="305" type="line"/>
      <point x="1501" y="761" type="line"/>
      <point x="1673" y="761" type="line"/>
      <point x="1673" y="1072" type="line"/>
      <point x="1494" y="1072" type="line"/>
      <point x="1490" y="1144"/>
      <point x="1497" y="1194"/>
      <point x="1515" y="1222" type="curve" smooth="yes"/>
      <point x="1533" y="1250"/>
      <point x="1563" y="1264"/>
      <point x="1605" y="1264" type="curve" smooth="yes"/>
      <point x="1630" y="1264"/>
      <point x="1662" y="1260"/>
      <point x="1701" y="1251" type="curve"/>
      <point x="1701" y="1562" type="line"/>
      <point x="1692" y="1565"/>
      <point x="1678" y="1569"/>
      <point x="1660" y="1574" type="curve" smooth="yes"/>
      <point x="1642" y="1579"/>
      <point x="1606" y="1586"/>
      <point x="1552" y="1595" type="curve" smooth="yes"/>
      <point x="1498" y="1604"/>
      <point x="1444" y="1608"/>
      <point x="1391" y="1608" type="curve" smooth="yes"/>
      <point x="1138" y="1608"/>
      <point x="1011" y="1474"/>
      <point x="1011" y="1205" type="curve"/>
      <point x="1012" y="1117"/>
      <point x="1013" y="1072"/>
      <point x="1013" y="1070" type="curve"/>
      <point x="618" y="1070" type="line"/>
      <point x="614" y="1142"/>
      <point x="621" y="1192"/>
      <point x="639" y="1220" type="curve" smooth="yes"/>
      <point x="657" y="1248"/>
      <point x="687" y="1262"/>
      <point x="729" y="1262" type="curve" smooth="yes"/>
      <point x="754" y="1262"/>
      <point x="786" y="1258"/>
      <point x="825" y="1249" type="curve"/>
      <point x="825" y="1560" type="line"/>
      <point x="816" y="1563"/>
      <point x="802" y="1567"/>
      <point x="784" y="1572" type="curve" smooth="yes"/>
      <point x="766" y="1577"/>
      <point x="730" y="1584"/>
      <point x="676" y="1593" type="curve" smooth="yes"/>
      <point x="622" y="1602"/>
      <point x="568" y="1606"/>
      <point x="515" y="1606" type="curve" smooth="yes"/>
      <point x="262" y="1606"/>
      <point x="135" y="1472"/>
      <point x="135" y="1203" type="curve"/>
    </contour>
    <contour>
      <point x="2354" y="301" type="line"/>
      <point x="2354" y="1626" type="line"/>
      <point x="1775" y="1626" type="line"/>
      <point x="1775" y="1313" type="line"/>
      <point x="1859" y="1313" type="line"/>
      <point x="1859" y="301" type="line"/>
      <point x="1785" y="301" type="line"/>
      <point x="1785" y="-4" type="line"/>
      <point x="2432" y="-4" type="line"/>
      <point x="2432" y="301" type="line"/>
    </contour>
  </outline>
</glyph>
<glyph name="fi" format="1">
  <advance width="1622"/>
  <outline>
    <contour>
      <point x="1496" y="1072" type="line"/>
      <point x="1496" y="305" type="line"/>
      <point x="1580" y="305" type="line"/>
      <point x="1580" y="0" type="line"/>
      <point x="933" y="0" type="line"/>
      <point x="933" y="305" type="line"/>
      <point x="1015" y="305" type="line"/>
      <point x="1015" y="761" type="line"/>
      <point x="624" y="761" type="line"/>
      <point x="624" y="305" type="line"/>
      <point x="734" y="305" type="line"/>
      <point x="734" y="0" type="line"/>
      <point x="54" y="0" type="line"/>
      <point x="54" y="305" type="line"/>
      <point x="138" y="305" type="line"/>
      <point x="138" y="761" type="line"/>
      <point x="54" y="761" type="line"/>
      <point x="54" y="1072" type="line"/>
      <point x="137" y="1072" type="line"/>
      <point x="137" y="1074"/>
      <point x="136" y="1119"/>
      <point x="135" y="1207" type="curve"/>
      <point x="135" y="1476"/>
      <point x="262" y="1610"/>
      <point x="515" y="1610" type="curve" smooth="yes"/>
      <point x="568" y="1610"/>
      <point x="621" y="1606"/>
      <point x="675" y="1597" type="curve" smooth="yes"/>
      <point x="729" y="1588"/>
      <point x="765" y="1581"/>
      <point x="783" y="1576" type="curve" smooth="yes"/>
      <point x="801" y="1571"/>
      <point x="814" y="1567"/>
      <point x="823" y="1564" type="curve"/>
      <point x="823" y="1253" type="line"/>
      <point x="784" y="1262"/>
      <point x="752" y="1266"/>
      <point x="727" y="1266" type="curve" smooth="yes"/>
      <point x="685" y="1266"/>
      <point x="655" y="1252"/>
      <point x="637" y="1224" type="curve" smooth="yes"/>
      <point x="619" y="1196"/>
      <point x="612" y="1146"/>
      <point x="616" y="1074" type="curve"/>
    </contour>
    <contour>
      <point x="1214" y="1137" type="line"/>
      <point x="1295" y="1137"/>
      <point x="1363" y="1159"/>
      <point x="1418" y="1204" type="curve" smooth="yes"/>
      <point x="1473" y="1249"/>
      <point x="1500" y="1310"/>
      <point x="1500" y="1387" type="curve" smooth="yes"/>
      <point x="1500" y="1462"/>
      <point x="1473" y="1522"/>
      <point x="1420" y="1566" type="curve" smooth="yes"/>
      <point x="1367" y="1610"/>
      <point x="1298" y="1632"/>
      <point x="1213" y="1632" type="curve" smooth="yes"/>
      <point x="1132" y="1632"/>
      <point x="1065" y="1610"/>
      <point x="1013" y="1566" type="curve" smooth="yes"/>
      <point x="961" y="1522"/>
      <point x="935" y="1462"/>
      <point x="935" y="1387" type="curve" smooth="yes"/>
      <point x="935" y="1310"/>
      <point x="961" y="1249"/>
      <point x="1014" y="1204" type="curve" smooth="yes"/>
      <point x="1067" y="1159"/>
      <point x="1133" y="1136"/>
      <point x="1212" y="1136" type="curve"/>
    </contour>
  </outline>
</glyph>
<glyph name="invertedbreve" format="1">
  <advance width="924"/>
  <outline>
    <contour>
      <point x="461" y="1072" type="move" name="_top"/>
    </contour>
    <contour>
      <point x="58" y="1152" type="line"/>
      <point x="310" y="1152" type="line"/>
      <point x="310" y="1203"/>
      <point x="325" y="1242"/>
      <point x="355" y="1270" type="curve" smooth="yes"/>
      <point x="385" y="1298"/>
      <point x="421" y="1312"/>
      <point x="462" y="1312" type="curve" smooth="yes"/>
      <point x="503" y="1312"/>
      <point x="539" y="1298"/>
      <point x="569" y="1270" type="curve" smooth="yes"/>
      <point x="599" y="1242"/>
      <point x="614" y="1202"/>
      <point x="614" y="1151" type="curve"/>
      <point x="866" y="1151" type="line"/>
      <point x="866" y="1206"/>
      <point x="854" y="1256"/>
      <point x="831" y="1301" type="curve" smooth="yes"/>
      <point x="808" y="1346"/>
      <point x="777" y="1382"/>
      <point x="739" y="1410" type="curve" smooth="yes"/>
      <point x="701" y="1438"/>
      <point x="658" y="1459"/>
      <point x="610" y="1474" type="curve" smooth="yes"/>
      <point x="562" y="1489"/>
      <point x="512" y="1496"/>
      <point x="461" y="1496" type="curve" smooth="yes"/>
      <point x="410" y="1496"/>
      <point x="360" y="1489"/>
      <point x="312" y="1474" type="curve" smooth="yes"/>
      <point x="264" y="1459"/>
      <point x="221" y="1438"/>
      <point x="183" y="1410" type="curve" smooth="yes"/>
      <point x="145" y="1382"/>
      <point x="114" y="1346"/>
      <point x="91" y="1301" type="curve" smooth="yes"/>
      <point x="68" y="1256"/>
      <point x="56" y="1206"/>
      <point x="56" y="1151" type="curve"/>
    </contour>
  </outline>
</glyph>
<glyph name="macron" format="1">
  <advance width="885"/>
  <outline>
    <contour>
      <point x="442" y="1072" type="move" name="_top"/>
    </contour>
    <contour>
      <point x="816" y="1267" type="line"/>
      <point x="816" y="1593" type="line"/>
      <point x="68" y="1593" type="line"/>
      <point x="68" y="1267" type="line"/>
    </contour>
  </outline>
</glyph>
<glyph name="ymacron" format="1">
  <advance width="1499"/>
  <outline>
    <contour>
      <point x="435" y="-377" type="line"/>
      <point x="632" y="31" type="line"/>
      <point x="166" y="761" type="line"/>
      <point x="38" y="761" type="line"/>
      <point x="38" y="1072" type="line"/>
      <point x="788" y="1072" type="line"/>
      <point x="788" y="761" type="line"/>
      <point x="690" y="761" type="line"/>
      <point x="866" y="454" type="line"/>
      <point x="1018" y="761" type="line"/>
      <point x="898" y="761" type="line"/>
      <point x="898" y="1072" type="line"/>
      <point x="1458" y="1072" type="line"/>
      <point x="1458" y="761" type="line"/>
      <point x="1329" y="761" type="line"/>
      <point x="894" y="-82" type="line"/>
      <point x="1126" y="-82" type="line"/>
      <point x="1126" y="-377" type="line"/>
    </contour>
    <contour>
      <point x="1067" y="1183" type="line"/>
      <point x="1067" y="1518" type="line"/>
      <point x="319" y="1518" type="line"/>
      <point x="319" y="1183" type="line"/>
    </contour>
  </outline>
</glyph>
